<?xml version="1.0" encoding="utf-8"?>
<!-- Generator: Adobe Illustrator 19.1.0, SVG Export Plug-In . SVG Version: 6.00 Build 0)  -->
<svg version="1.1" id="Layer_1" xmlns="http://www.w3.org/2000/svg" xmlns:xlink="http://www.w3.org/1999/xlink" x="0px" y="0px"
	 viewBox="0 0 612 792" style="enable-background:new 0 0 612 792;" xml:space="preserve">
<style type="text/css">
	.st0{fill:#243C65;}
</style>
<path class="st0" d="M19.1,405.4c20.1,6.9,35.6-10.1,37.6-12.5c-2.9-2.7-6.1-2-6.1-2c-4.7,2.5-10.3,3.7-10.3,3.7
	c-6.6,1.5-10.3-5.2-10.3-5.2c-1.3-4.4,1.5-7.8,3.6-9.7c0,0,0.1-0.1,0.1-0.2c0.1-0.1,0.3-0.2,0.5-0.3c0.9-0.7,1.6-1.2,1.6-1.2l0.1,0
	c6.4-3.7,14.6-4.2,14.6-4.2C68.7,373.4,80,368,80,368c19.9-9.5,15.9-36.8,13.7-46.8c0.2-0.1,0.3-0.2,0.5-0.3
	c10.8-6.8,23.2,5.1,26.8,13.9c5.7,13.9,4.4,28.9-0.3,42.9c-0.8,2.4-1.9,4.9-3.3,7.4c-7.2,12.7-18.7,22.7-23.7,36.7
	c-3.1,8.7-3.8,19.9-3.3,29c2.1,39.3,35.8,70.3,75.9,65c3.4,7.8,13.3,32.3,11.6,48.1c-3.3,8-11.3,12.3-19.4,16.1
	c0.3-0.1,0.6,6.2,0.6,6.6c-0.3,3.9-1.6,7.8-3.4,11.2c-4.9,9.6-13.4,12.6-23.4,14.4c-7,1.3-14.1,1.4-21.1,0.2
	c-2.1-0.3-4.2-0.7-6.5-1.3c0,0-5.9,0,0.5,5.7c0.5,1.1,1.9,2.2,3.3,3.3l3.4,3.4c0,0.1,0.1,0.2,0.1,0.4c-0.1,0.1-0.1,0.2-0.2,0.3
	c-4.4,3.5-8.1,9.3-9.8,12.2c-0.4,0.4-0.7,0.9-0.9,1.6c-0.1,0.1-0.1,0.2-0.1,0.2c-2.9,5.9,1.7,4.9,1.7,4.9c5.8-2.3,9.5-0.8,10.8-0.1
	c0,0.1,0,0.2,0,0.3c-7.6,14.3-9.5,23.7-9.9,28.6c-0.3,1.4-0.3,2.7,0.1,4.1c0,0.1,0,0.2,0,0.2c1.2,0.1,2.3,0,3.3-0.4
	c4.1-0.6,9.3-1.6,11-1.9c-0.3,7.6-1.2,34.4-0.2,43.8c0,0,3.9,6.1,3.7,12.8c0,0,2,28,16.2,40.3c0,0,0.2,0.2,0.4,0.5
	c4.2,0.3,8.5,0.6,13,0.5c4.1,3.1,7.7,11.2,7.7,11.2c1,2.9,5.4,0.6,5.4,0.6c1.7-4.4,1.1-9.1,0.1-12.6c2.6-0.2,5.4,0.5,8.4,1.2
	l3.6,0.4c3.2,0.7,6.1,0.5,8.7-0.2c2.5,3.5,4.3,7.5,4.3,7.5c1,2.9,5.4,0.6,5.4,0.6c1.8-4.7,1-9.7-0.1-13.3c4.8-4,7.5-8.7,7.5-8.7
	c3.2-0.2,5.9-0.8,8.4-1.7c1.1,5.1,1.5,10.3,1.5,10.3c0,3.9,4.9,2.9,4.9,2.9c4.4-6.7,4.4-16.1,4.1-20.3c4.7-5.6,5.4-11.8,5.4-11.8
	c-3.3-21.6-18.7-38.3-18.7-38.3c-3.6-5.3-11-6.2-14.6-6.3c-0.1-0.1-0.1-0.1-0.2-0.1c-22.6,2.5-25.5-9-25.5-9
	c5.8-21.7,26.3-25.8,32.7-26.5c0.4-0.1,0.8-0.1,1.1-0.1c0,0,0.1,0,0.1-0.1c5.8-1.4,10.3-4.5,11.5-5.4c8.2-13.3,32.6-37.1,48.2-51.7
	c1.4-1.1,2.6-2.4,3.9-3.6c7-18.9,20.4-38.3,20.4-38.3c6.2,2.2,10.4,6.6,16.3,9.2c26.2-10.4,42.9-11.9,48.1-12.1
	c0.7,0,1.3,2.4,1.4,2.9c0.3,2.4-0.8,5.8-2.5,7.4c-2.2,2.1-5.6,3.7-8.4,4.9c0,0-15.8,4.2-31.5,28.7c-0.4,1.5-0.7,3-0.8,4.8
	c-0.2,0-0.4-0.1-0.6-0.2c-2.5-0.8-12.4-3.8-18.6-1.9c0,0.1,0,0.2,0,0.3c6.6,6.4,9.3,25.3,9.3,25.3c-7.5,6-5.6,15.3-5.6,15.3
	c0.2,2.3,1.3,2.9,1.3,2.9c8.3-6.4,27.2,1.5,35.6,5.6c-5.5,7-1.6,16.5-1.6,16.5c0,1.1,1.5,1.1,1.5,1.1c0.8-0.7,2.2-1.4,3.8-2.2
	c35.2-15.7,82.8-14,93.9-13.4c0,0,13.2,2.7,13.2,2.7c0.2,0,0.3,0.1,0.5,0.1l0.7,0.2l0.4-0.1c0.5,0,1-0.1,1.5-0.3l11.1-2.4
	c3,2.7,5.1,7.6,9.4,7.2c5.6-0.4,13.6-15.3,11.7-24.9c2.3-0.4,3.6,1,5.6,0.8c1.6-0.2,2.5-1.6,4.2-1.6c5.2,0,8.2,5.7,10.9,10
	c6-6.1,5-25.1-2.6-28.5c0.5-7.3-1.9-12.7-5.7-16.5c-7.6-8.6-17-11.6-24.2-12.6l0.2-0.1c0,0-2.2-0.4-5.8-0.3c-3.5,0-5.7,0.3-5.7,0.3
	l0,0.1c-8.2,1.1-19.7,4.6-30.4,15c0,0-3.2,6.3-12.4,6.6c0,0.1-0.5,0-1.3,0c-0.6,0-1.2,0-1.9,0l-5.3-0.6c-10.4-0.9-27-2.4-30.9-2.9
	c0,0,1.6-2.8,4.4-5.3c7.3-7.3,17.4-14.6,27.1-20.7c2.4-1.4,4.8-2.9,7.2-4.4c9.5-5.7,17.5-9.8,20.5-11.4c0.5-0.2,0.9-0.4,1.3-0.6
	c5.5-3.1,6.4-9.3,6.4-9.3c5-18.8-0.3-35.5-0.3-35.5c-6.9-20.9-33.4-31.7-33.4-31.7c-0.8-0.1-2.2-0.2-4.1-0.4
	c-1.2-0.2-2.7-0.3-4.2-0.4c-6-0.6-13.7-1.2-17.9-1.6c-0.2-0.2-0.3-0.4-0.5-0.7c1-4.5,3.8-8.9,3.8-8.9c3.7-7.5,21.5-15.7,31.5-19.9
	c2.3-0.9,4.6-1.8,6.9-2.7c4.5-5.1,26.6-30.9,34.5-47.2l4.7-1c12.6-3.8,26.4-6.8,39.4-10.5c4.4-1.3,8.9-2.3,13.2-3.6
	c5.8-1.9,11-4.7,17.3-5c6.9-0.3,13.6,1.6,20.2,3.3c0,0,14,3.4,14,3.4c10.8,1.5,16.6-1.7,19.6-4.7c0.6-0.8,1.1-1.5,1.6-2.2
	c2.8,1.4,4.5,5.4,4.5,5.4c0.5,2.6,2.5,1.5,2.5,1.5c8.4-12.8-0.5-21.5-0.5-21.5l-0.3,0.2c0.5-1.7,1-3.1,1.3-4.3
	c-0.1-0.8,0-1.6,0.6-2.4c3.8,0.5,6.8,5.9,6.8,5.9c1,2.9,2.8,1.4,2.9,1.3c0.1,0.1,0.1,0.1,0.2,0.2c0-0.3,0.1-0.5,0.1-0.8
	c6.7-16.3-4.1-24.9-4.1-24.9l-0.1,0.1c-0.1-1.1-0.4-3.7-1.3-7.2c3.1-0.2,6.5,1.2,6.5,1.2c2.6,1.7,3.1-0.8,3.1-0.8
	c-4.6-17.6-18.8-17.7-18.8-17.7l-0.1,0.2c-4.7-5-11.5-9.2-20.9-10.9c-0.6-0.1-1.1-0.2-1.5-0.2c-6.1,0.4-8.6,5.1-10.3,6.6
	c-5.7,6.2-15.4,11.5-23.7,13.6c-2.3,0.6-4.6,0.9-6.8,0.9c-0.7,0-1.3,0-1.9-0.1c-0.2-0.1-0.3-0.2-0.5-0.3c-1-1.3-3.2-3.5-7.5-5.2
	c-5.4-2.5-11.9-3-18.6-2.7l-24.8-1.3c49.3-38.9,55.1-87.4,55.7-102.6c8.3-3,12-8.5,13.5-14.3c8.7-2.1,14.9,6.7,14.9,6.7
	c0.9,0.4,1.7,0.8,2.4,0.3c0.7-0.6,1.1-1.4,1.4-2.2l0-0.2c-0.5-26.8-21.1-29-21.1-29c-0.5-1.7-1.1-3.2-1.6-4.4
	c5.5-5.1,6.4-10.6,5.7-15.3c2.9-1.6,8.6-4.1,14.7-3.5c0.4-0.5,0.7-1.2,0.8-2.1c0-0.6-0.1-1.3-0.5-2c-2.2-2.5-10.4-10.5-22.8-8.9
	c-2.3-3.1-4.8-4.9-7.1-5.9c1.2-2.6,5-4.3,5-4.3c2.5-0.6,1.3-2.4,1.3-2.4c-12-6.3-19.7,0-21.1,1.4c-3.3-0.4-7.8,0.2-13.6,2.8
	c-1.2,0.6-2.4,1.1-3.5,1.8c-5.7,2.8-15.9,9.2-16.6,18.9v6.6c0,6.5,0.1,13,0,19.5c-0.1,7.6-0.2,15.1-0.9,22.7
	c-2.4,24.4-10.9,51-34.5,62.8c0,0-13.4,0.6-21.3-2.4c12.6-10.6,11.9-25.6,11.9-25.6c-3.8-21.3-16.8-26.4-25.7-27.3
	c-0.2,0-0.3,0-0.5-0.1c-0.1,0-0.1,0-0.2,0c-4.7-0.5-7.9,0.3-7.9,0.3c0,0.1,0,0.1,0,0.1c-0.1,0-0.3,0.1-0.4,0.2
	c5.1,4.9,5.3,11.1,5.1,13.8c0,0.1,0,0.2,0,0.2c-0.1,0.7-0.1,1.1-0.1,1.1c-0.9,5.5-6.2,8.4-11,10.4c-6.3,2.7-13.2,3.6-20,3.1
	c3.1-4.1,10.9-17.1-2.1-28.9c0,0-1.2-0.9-2.6-1.2c-1.9,2.9-11.2,16.1-27.1,13c0,0-3.1-0.6-6.9-2.5c-0.2-0.1-0.3-0.1-0.5-0.2
	c-0.2-0.1-0.4-0.3-0.6-0.4c-2.6-1.5-5.4-3.6-7.7-6.5c-2.8-3.1-4.8-7.1-3-12.3c3.3-9.9,23.1-10.8,34.6-7.2c0.3,0.1,0.6,0.2,0.9,0.3
	c4.1,1.9,6.6,4.5,6.6,4.5c3.4,3.4,8.1,2.2,8.1,2.2c11.5-5.6,9.8-16.6,7.7-22.7c-0.1-0.5-0.3-0.9-0.5-1.3c-0.7-1.9-1.4-3.1-1.4-3.1
	c-0.4-2.6,1.3-4.7-0.4-6.4c0,0-2.1-2.2-5.3-2c-0.3-0.9-1.9-5.3-6-2.4c-0.2-1.6,0.7-2.6,2-3.1c8.8,2.8,21.9,13.4,21.9,13.4
	c7.4,4.9,13.1,10,22,12c8.7,2,17.7,1.4,25.8-2.6c13.6-6.8,20.3-26.7,12.1-40.1c-2.7-4.4-8-9.6-13.6-9.7l-0.1,8.5
	c0,1,0.6,2.2,0.7,3.2c2,18.3-22.5,19.5-34.4,15c-3.1-0.8-6.1-1.8-9-3c-3.4-1.4-5.9-4.8-9-5.2c-2.3-0.3-4.8,0.9-7.1,0.4
	c-2-0.4-3.5-3.1-5.6-3.6c-3.2-0.7-6.7,0.9-9.8,2c-2.1,0-2.2-2.2-4.1-2.4c-1.8,2.8-6.6,1.1-8.6-0.4c-2.8,0.9-4.9,2.5-7.5,3.6
	c-2.6-4,1.2-13.7,3.8-14.1c4.2-0.6,3,7.1,6.8,8c2.5-1.3,4.9-2.8,6.4-5.2c2.6,0.7,3.1,3.6,5.3,4.8c2.9-0.8,5.6-1.8,7.5-3.6
	c3.2,1.4,4.2,5.2,6.4,7.7c8.2-6.2,19.6-9.1,27.8-15.3c-0.9-11.5,1.3-19.1,3.8-27.8c2.2-7.6,7.6-14.9,2.3-20.1l-8.6-0.7
	c-2.1-5.1-9.7-16.1-33-19.2c0,0-1-0.1-2.7-0.4c-1.7-0.3-4-0.9-6.4-1.8c-1.3-0.5-2.5-1.1-3.7-1.7c-0.6-1.8-0.9-3.4-2.4-5.6
	c-3-4.1-7.3-5.9-11.9-7.1l-1.7-0.8l-0.4-0.1c0,0-2.9-0.7-6.3-1.8c-2.3-0.7-4.9-1.7-6.8-2.7c-0.6-0.6-0.9-1.4-1.2-2.2
	c-0.2-5.6,6.3-11.4,6.3-11.4c-6.5-2.7-11.7-0.2-14.8,2.2C314.5,22.9,324.2,9,324.2,9c-6.3-1.5-11.2-0.2-15,2.2
	c-1.9,0.9-3.4,2.4-4.8,4.1c-2.8,3.2-4.5,6.7-5.4,8.8c-0.1,0.2-0.2,0.4-0.4,0.6c-1-6.4,1-16.1,1-16.1s-6.4,0.1-12.3,4.7
	c0,0-0.1,0-0.1,0c0,0,0,0.1,0,0.1c-2.5,2-4.8,4.7-6.6,8.5c0,0-1.5,2.3-4.3,4c-0.2,0-0.5-0.1-0.7-0.1c-0.5-2.3-0.5-6.3,3.3-10.3
	c0,0-0.6-1.3-3.2-0.6c-3.1,0.2-12.7,1.8-18.7,11c-1.8-0.4-4-0.6-6.6-0.3c0,0-11.1,0-16.2-5.6c0,0-1.7-3.4-2.5,1.2
	c0,0-1.1,9.4,2.7,15.2c-1.8,0.3-3.5,0.8-5.1,1.4c-0.6-0.4-9.6-13.5-20.9-7.3c-0.3,0.5-0.5,0.9-0.7,1.4c1.1,0.1,2.1,0.4,3,0.9
	c0.7,0.7,7.5,8.4,1.8,18.1c-4-0.1-9-0.9-13.2-3.9c0,0-8-3.3-16.4,0.4c-1.6,0.5-3.1,1.3-4.5,2.6l-0.1,0.2c-1.2,1-2.4,2.1-3.6,3.5
	c0,0-1,1.2,1,1c0,0,1.2-0.1,3,0c12.2-0.5,16.7,7.1,18.4,12.3c-3-0.1-9,0.8-15,8.6c0,0-2.5,6.8-11.3,5.6c-1.6-0.5-3.3-1.1-5-1.5
	c-2.9-0.4-6.9-0.4-9.9,2.2c0,0,0,0,0,0c1.7,1,3.3,3.4,4.2,4.9c4.1,9.7,11.9,11,15.1,11.1c-0.8,1-1.7,2.1-2.7,3.4
	c-3.5,4.9-6.5,10-9.2,15.4c-3.7,7.1-6.9,14.5-9.6,22.1c-2.7,7.5-5.2,15-13,18.4c-0.7,0.3-9.4,3-9.8,1.7c3.7,13.1,26,14.5,35.9,6.5
	c-6.3,12.7-7.4,26.6-7.3,35.4c-0.5,8,1.4,15.9,1.5,24.9c0.2,11-6.2,19-13.2,23.3c0.4,5.5,6.2,6.7,10.5,7.2
	c13.5,1.5,26.1-5.3,33.1-11.6c0,0,11.7,30.6,5,56c-1.5,7-4.7,14.6-11.8,20.3c-1.3,1.5-2.2,3-1.8,4.2c0.7,2.1,6.2,1.8,9,1.6
	c8.7-0.7,19.4-4.7,25.5-8.9c0,0.2,0.1,0.3,0.1,0.5c0.5,2.5,1.1,5,1.9,7.5c2.3,6.6,6,12.5,10.5,17.7c3,3.4,6.6,6.1,10.1,8.9
	c2.3,1.8,9.8,8.1,13.2,5.3c1.9-12,10.4-16.5,10.4-16.5s0.6,1.5,1.4,3.6c1.4,3.9,2.7,8.5,3.4,11.7c0.7,2.7,1.6,6.1,1.5,8.4
	c0,0-1.1,2.9-3.2,7.6c-0.5,0.9-1,1.7-1.3,2.5c-0.9,1.9-1.7,3.9-2.4,5.8c-5.7,12-14.4,28.2-24.5,40c-9.4,4.7-43.8,22.8-63.1,48.6
	c-1,1.1-1.8,2.2-2.1,2.9c0,0-2.7,6.8-5.1,15.5c-7,3.3-20.2,3-27.7,1.9c-29.6-4.3-38.3-41.4-29.5-66.1c2.6-7.4,7.5-13.7,12.3-19.8
	c4.9-6.2,8.2-12.5,11.5-19.7c7.7-16.8,6.1-35.8-0.6-52.6c-5.1-13-15.3-22.6-28.4-26.6c-5.7-1.5-15.1-2.1-27.1,3
	c-5.3,0.1-20.8,0.9-27.7,5.1c0,0-21.6,10.1-30,27.3c0,0-4.2,10.8-5.6,16.2l-7.4,27c-0.3,0.6-0.5,1.2-0.6,1.9
	C6.5,399.3,19.1,405.4,19.1,405.4z M407.9,173.4c13,0.7,24-3.2,30.3-11.2l5-9.4c1.4,2.5,1.9,4.6,1.9,7.5
	c-0.2,8.5-3.9,15.7-12.4,18.3c-7.1,2.1-14.3,1.8-20.7-2.2C410.1,175.9,408.4,175,407.9,173.4z M488.9,196.3c0-4.6-0.2-9.1-0.3-13.7
	c-0.1-2.9-0.6-5.9-1.1-8.7c-0.8-5.2-2-10.8-1.1-16c0.7-4.3,3.5-7.4,6.6-10.2c4.1-3.8,9.9-3.2,12.4-2.7c-2.9,4.1-5.3,8.9-5.8,14
	c0,0,10.4-20.5,23.2-14.4c0,0,3.7,2.2,6.4,5.7l1.6,2.5c0.8,1.7,1.4,3.5,1.3,5.5c0,0-1.1,5.1-5.6,7.7c-5.2-3.8-10-3.5-13.4-2.3
	c-10.7,3.8-8.4,14.9-7.7,23.7c0.5,2.2,1.3,7.4-0.1,10.4c0,0-1.4,6.8,3,13.8c-1.9-7.3,0.7-14.2,1.6-16.4l0.3-8.2
	c-0.7-4.2-0.2-12.6,5.4-13.4c4.5-0.6,9.4,2.7,11.9,6.1c1.6,2.1,2.5,5.7,3.1,8.2c1.8,7.3,1.4,17.5-7.6,19.1c0,0-3.8,1.2-4.6,5.2
	c-0.7,12.9-3.9,45.7-19.5,51.8c0,0-10.1-0.1-11.8-25.5c-0.1-0.8-0.3-1.6-0.3-2.5C484.8,223,489,209.5,488.9,196.3z M264.6,216.2
	l4.7,1c1.5,0.3,3.1,0.3,4.6,0.6c8.3,1.4,18,3.8,23.6,10.7c2.2,2.7,3.7,6,3.9,10.1c0-0.5-2.6-1.8-2.9-2c-2.3-1.4-4.8-2.4-7.4-3
	c-6.4-1.4-13-0.1-19.2-3.1C266.9,228,264.1,221.6,264.6,216.2z M393.5,311.9c0,0-14.2,0.2-29.8-16.7c0,0-6.1-5.7-19-8
	c0,0-29-4.9-39.5-26.7c0,0-0.2-0.3-0.4-0.8c-0.7-2-1.2-4-1.4-6.2c0,0,14.3-2.5,31.4,6.7c11.2,9,24.3,14.4,30,16.5l4.2,2.2
	c9.8,5.8,12.5,19.1,19.9,27L393.5,311.9z M392.3,288.6c0,0,2.3-1.3,13.8,4.6l30.7,16.5c-7.4,0.2-19.4-0.7-31.8-6.3l-4.7-2.3
	C400.2,301.1,394.6,295.5,392.3,288.6z M352.5,300.4c-5.2,8-15.5,7.2-15.5,7.2c-30-1.7-40-25.7-43.1-37.8c2.4,0.5,7.8,2.1,12,6.4
	c7.6,8.6,19.6,15.4,30.9,17.1C344.9,295.1,352.5,300.4,352.5,300.4z M318.8,336.1c0,0-3-5.6-6.4-12c-2.8-6.6-3.8-12.4-4.2-15.5
	c4.8,2.1,21.6,10.7,26.4,29.1c1.9,8.7,2.8,25-12.3,36C323.7,368.5,327.3,351.4,318.8,336.1z M352.5,442.8c0,2.1-0.7,7.4-6,6.7
	c-0.4-0.3-1.2-1-2-2.7c0,0-8.7-23.5-21.3-38.4c-1.5-1.8-3.1-3.5-4.5-5.4l8.9,2.8c19,12.4,24.3,35,24.3,35
	C352.1,441.5,352.3,442.2,352.5,442.8z M343.7,413c-0.5-0.5-1.1-1-1.6-1.5c0,0-0.6-0.7-1.5-1.6l14.4,4.6c4.7,4,8.2,9.2,9.2,17.2
	c0,0-1.9,4.8-5,3.4c0,0-1.1-1.2-1.8-2.7C357.5,432.4,350.3,419.8,343.7,413z M326.8,452c0,0-7.1,3.4-11.3-5.9
	c0,0-1.7-13.3-12.3-25.3c-0.9-1-1.5-3.3-1.5-4.6c0.3-3.7,5-1.8,6.9-0.7c6,3.4,11.2,8.2,14.7,14.2C323.3,429.7,331,445.9,326.8,452z
	 M296.2,338.4c0,0-6.7-5.1-8.4-7.4c0,0-2.7-5-4.3-9.2l6.9-1.4c0,0,13.1,0.8,20.4,13c1.2,2.4,10.3,21.7-6.8,34.5
	c0,0,5.4-11.8-1.7-23.8C302.5,344.1,298.9,339.9,296.2,338.4z M279.9,288.3c-7.7-17.4-3.3-27.5-3.3-27.5l2.9,4.6l8,18
	c5.1,10,5.9,21.1,5.9,21.1C285.1,300.9,279.9,288.3,279.9,288.3z M252.4,161.7c0.5-3,1.3-5.5,2.2-7.6c0.4-1,0.7-1.6,0.7-1.6
	c0.6-1.2,1.3-2.3,1.9-3.2c0.7-1,1.2-1.7,1.7-2.2c0.3-0.6,0.7-1.2,1.2-1.2c0,0-6.5,17.5,0.3,36.3c1.1,3.2,2,5.2,2,5.2
	c1.4,2.7,3.6,5.5,5.7,7.7c8.3,8.5,20.8,3,29.6-1.7c0.4,0.6,0.5,1.3,0.5,2.2c0.4,3.2-0.2,9.2-9,13.6c-1.1,0.5-2.3,0.9-3.5,1.2
	c-5.2,1.5-11,2-16.1,0c-5.4-2.2-9.5-7.5-12.1-12.5c-1.2-2.3-2.1-4.7-2.9-7.2C251.2,181.3,250.6,171.5,252.4,161.7z M237.2,301.1
	c1.6-1.7,4.4-0.8,6.8,1.2c1.5,2.8,4.5,8.2,7.9,13.2c1.8,4.8,1.3,9.3,0.6,12.2c-0.5,1.1-1,2.2-1.6,3.2
	C240.5,321,237.7,304.2,237.2,301.1z M235.2,252.6c0,0,2.2-7.4,2.7,1.7c0,0,2.7,26.8,3.9,33.6c0,0,0.7,4.4-2.9,5.4
	c0,0-4.3,0-4.6-3.7C234.3,289.7,231.2,268.3,235.2,252.6z M207.4,195.3c1.6-14.1,8.5-27.9,15.2-40.3c2.4-4.5,5.1-8.8,8.2-12.9
	c1.1-1.4,2.1-2.8,3.2-4.1c0.4-0.5,2.6-2.5,2.6-3.1c0,0,1.4,28.2,1.4,28.2c-5,7.4-15.3,25-17.5,48.3c0,0,0,14.1,0,23.3
	c0,0,0.4,7.9-0.5,16.4c0,0.1-0.2,3.1-1.1,7.4c-0.1,0.3-0.1,0.6-0.2,0.9c-0.1,0.6-0.3,1.3-0.5,1.9c-1.2,4.5-3.1,9.8-6.2,14.1
	c0,0-1,0.9-1-1.5c4.8-14.4,2.3-33.1,1.1-40.4c-0.8-5.7-2.1-11.3-3.2-16.9C207.6,209.5,206.6,202.4,207.4,195.3z M204,148.9
	c0,0-5.2,2.7-10.1,8.2c-5.1,5.1-10.9,12.6-14.7,22.6c0.5-10.8,3.5-17.6,3.5-17.6c6.2-22.3,47.1-46.7,47.1-46.7s0.5,0.5,1,1.5
	c0.1,0.2,0.2,0.4,0.2,0.6c0,0.1,0.1,0.3,0.1,0.4c0.1,0.3,0.2,0.7,0.3,1c0.7,3.1,0.5,8.6-3.9,17.3l-3.4,4.8
	c-7.5,9-26.2,34.6-31.3,68.9c-0.2,0.1-0.4,0.2-0.6,0.3c-2.3-10.8-1.9-30.7-1.9-30.7c0.2-5,3.4-12.3,6.6-18.4
	C199.5,156.9,202.3,152.9,204,148.9z M188.8,121.2c18.8-22.8,35.9-24.4,40.4-24.4c-1.1,3-3.4,9.2-5.1,13.1
	c-4.7,3.9-28.5,23.6-34.7,26.3c0,0-11,5-20.4,5.2C179.2,135.9,188.8,121.2,188.8,121.2z M243,67.1c-1.1,2.6-3.7,6.9-10,12.8
	C227.4,81,202,87,185.1,106c-2.2,2.2-3.5,3.6-3.5,3.6l1.5-5.9c1.2-3.7,2.7-6.8,4.3-9.7c11.5-18.2,29.7-23,36.3-24.2
	c-2.4-3.8-14.3-5.1-14.3-5.1C229.3,55.1,243,67.1,243,67.1z M252.3,66.8c-1.6-1.7-3.2-3.3-4.7-4.7c-0.9-1.2-1.9-2.4-3.2-3.4
	c-2.6-2-5.7-2.7-6-6.4c2.7-0.4,4.3-0.2,6.8,0.4C248.5,56.9,258.6,59.5,252.3,66.8z M292.5,94.1c0,0-11.9,21.3-25.9,25.9
	c0.2-5.2,2.8-7.8,3.4-12.6c-1.1-0.2-1.3-1.3-2.5-1.6l-9.7,7.9l1.2-9.5c0-0.9,0-1.8,0-2.7l-3.5-4.4c-3.7-0.3-6.9,2-9.5,1
	c-0.4-2.6,3.8-9.7,6.1-11c2.2,3.4,5,4.5,5,4.5l-1.1-7.8c-0.2-3.5,0-7.2-0.2-11c4.6-14.2,11-26.6,23.3-32.6h0.8
	c-0.8,2.6-2.5,5.2-4.4,7.9c-1.5,2.1-2.5,5.1-3.5,7.4c-3,6.7-5.3,13.8-6.7,21c-0.3,1.7-0.5,3.3-0.5,4.8c1.7,8,8.3,14.8,11.3,17.6
	c4-5,6.9-11,6.9-11c2.7-8.8-2.2-20.4-2.2-20.4c-0.2-2.5,2.9-6.4,2.9-6.4s0,0.1,0,0.1c0.7-0.8,1.7-1.3,3-1.1
	C289.1,64.9,297.5,82,292.5,94.1z M374.4,141.7c2.1-1.1,5.6-0.5,5.3,2.4c-1,1.3-1.8,2.6-3.8,2.8C376,144.5,374.2,144.2,374.4,141.7z
	 M360.9,139.2c2.6-0.5,3.6,0.7,5.6,0.8c0.3,3.4-2.5,3.5-4.1,4.8C362.3,142.5,361.1,141.5,360.9,139.2z M351.1,138
	c1.1-1.3,5.1-0.9,5.3,1.2c-1.5,0.7-2.2,2.3-3.8,2.8C351.4,141.5,351,140.1,351.1,138z M309.4,188.1c-0.1,0-0.1,0-0.2,0.1
	c-0.1,0-0.2,0.1-0.4,0.1c-0.3,0-0.6,0.1-0.9,0c-2.4-0.2-6.6-5-7.9-6.8c-6.8-9.3-12.4-25.9-9-42.6c2.2-10.8,9.5-18.4,6.4-29.8
	c-0.8-2.7-2.9-4.2-2.6-6.8c0.1-1,0.6-1.6,1.1-2.2l5.7-8.3c4.6-9.2-4.9-27.8-4.9-27.8c-4.9-15.4-4.3-26.5-4.3-26.5
	c0.8,0.2,1.6,0.8,2.4,1.7c4.5,2.8,6.6,9.2,11.2,11.2c-1-3.5-0.9-9.5,0.4-12.9c0.3,0.1,0.6,0.2,0.8,0.4c0.4,1.7,4.5,14,34.8,21.6
	c0.7,1.4,1.5,2.6,2.4,3.8c3.5,4.9,8.6,7.8,13,9.4c5.9,2.2,11,2.6,11,2.6c13.8,2.1,20.5,6.5,23.7,10c0.7,0.9,1.3,1.9,1.8,2.9
	c-2.3,4.3-10.8,2.1-13.5,6c-2.6,6.4,1.6,9.9,3.4,14.9c9.8,2.3,16.9,9.5,14.7,23.3c-3.6,1.9-8.2,4.6-13.5,3.6
	c-2.7-0.5-4.6-3.3-6.8-3.6c-6.1-0.8-11.9,3.8-17.7,2c-5.2-1.6-6.5-7-10.1-10c-5.3,1-8.7,3.8-12.8,6c-2.9,8.3-4.9,17.3-8.6,24.5
	c-2.3,4.4-7.3,6.3-8.3,10.8c1.8,3.2,4.6,4.3,7.9,4.3c8.2-2.4,14.5-3.5,19.4-3.9l6.1,0.5l-0.4-0.3c1.7,0.2,3.2,0.4,4.4,0.6l0,0.1
	l2,0.2l2.4-1.3c1.6,0.2,2.8,2,3.1,6.5c1.3,0.9,2.8,0.2,3.9-1.1c3.9,1.8,2.1,8.4,2.1,8.4c0.7,4.2,2,12.6-1.9,13.3
	c-0.9,0.2-1.6-0.1-2.2-0.5c0,0-0.1,0-0.2-0.2c-0.3-0.2-0.5-0.4-0.7-0.7C362.3,188.1,344.7,175,309.4,188.1z M367.5,227.7
	c-0.6,3.9-4.7,22.5-32.8,18c0,0-21.5-4-24.3-21.3c0,0.2,2.9,1.2,3.2,1.3c1.2,0.6,2.4,1.3,3.6,2c8.4,5,16.9,10.6,27.1,9.7
	c3.7-0.3,7.5-1.3,10.7-3.1c4-2.3,7.5-6,12.3-6.5L367.5,227.7z M420.3,246.9c-1.8,4.9-5.2,9.4-8.7,13c-13.3,13.5-35.1,11.7-51.3,5.2
	c-9.4-4-17.3-9.1-20.4-11.3c0.3,0.2,3.9-0.9,4.4-1c1.8-0.2,3.6-0.2,5.4-0.1c3.7,0.1,7,1.3,10.5,1.9c2.9,0.5,5.9,0.8,8.8,1
	c5.9,0.3,11.8,0,17.6-1.2c3.7-0.7,7.3-1.9,10.6-3.7c6.6-3.5,12.7-9.4,14.7-16.8c0.2-0.7,2.2-8,2-8.1c2.2,1.2,4.4,4.2,5.6,6.4
	C422.1,236.7,422.1,242.1,420.3,246.9z M450,305.3l-36.8-25c0,0,3.7-3.4,13,0c0,0,1.6,1.1,4.2,2.5c4.8,3.1,9,4.1,9,4.1
	c11.5,2.4,18.3-0.9,22-3.9c0,0.1,0,0.2-0.1,0.3c0.3-0.2,0.5-0.6,0.8-0.8c0.7-0.7,1.3-1.3,1.7-1.8C464.3,283,466.8,299.9,450,305.3z
	 M369.5,393.3c0,0-15.2-7.6-24.1-17.4c0,0,0.5-8.5,3.1-12.2c6.7,0.6,13.4,0.9,18.8,4.8c2.2,1.6,3,3.6,4.9,4.9
	c15.6,3.4,56.2,4.7,56.2,4.7c6.1-0.8,12-1.7,17.5-2.7c7.6-1.8,15.8-3.3,23.3-5.2c4.8-1.2,9.3-2.8,14-3.9c9.3-2.8,14.5-5,14.5-5
	c-6.7-0.5-13.8,1.9-21.2,2c0.4-1.9,0-4.5-0.3-5.8c-3.5,0.6-8.2,3.2-8.2,3.2c-0.2-2.7-1.3-4.9-2-5.9c-1.9,0.6-10.4,4.7-13.8,6.4
	c-0.3,0-0.5,0.1-0.7,0.2c-0.1,0-0.1-0.1-0.1-0.1l0.9-2.8c0.8-2.9-0.7-2.6-0.7-2.6c-5.3,0.7-12.3,4.1-15.6,5.7c0,0,0-0.1,0-0.1
	c1.6-3,2.3-6.2,2.6-8.1c-0.1,0-0.3,0-0.4,0c-1.8,0.1-9.2,1-15.1,8c0,0-1.5,2-2.3-0.3c0,0-1.2-5.8-2.9-9.3c0,0-8.4,6.5-13,7l-1.5-6.5
	l-12.5,6.6c-5.5-0.4-12.2-1.4-18.4-3.6c-6.7-10.1-10.2-31.6-10.2-31.6c-1.9-3.7-3.5-8-3.5-8c0.3-0.8,1.9-0.6,4.1,0.2
	c1.1,0.4,2.1,0.7,3.2,0.9c6.5,1.2,16.9,3.4,24.4,4c3.4,0.3,9.7,1,12,0.4c1.4-0.4,2.1-2.9,3.6-3.8c8.9,1.2,21,11.5,21,11.5
	c4.7,3.9,13.8,4.7,13.8,4.7c74.1-0.4,70.5,5.7,70.5,5.7c5.4,5.6,10.6,9.6,10.6,9.6c13.6,0.8,27.5-1.9,33.1-3.1
	c3.8-3.8,7.2-8.3,9.1-11c-2.4-2.9-9-3.9-8.9-7.9c0-1.4,3.9-4,4.9-4.9c12.9-10.2,26.3,10.6,28.4,21.1c0.1,0.7,0.2,1.2,0.3,1.7
	c-2.6,1.1-5.7-1.7-9.6-2.2c-4.6-0.7-8.1,0.5-12.4,1.2c0,0,18,1.1,19,14.9c0,0-1,5.6-5.6,5.6c0,0-2.7,0-6.1-1.7c0,0-5.3-2.7-11.7-3.5
	c-5,0-9.6,1-12.7,2.4c9.9,2.4,28.5,1.7,27,14.9c-1.5,4.8-6,6-10.5,6.3c-5.7,0.4-10.4-2.4-15.5-4.5c-4-1.6-8.1-3.1-12.3-3.8
	c-4.1-0.6-8.9,0.8-12.8,0c-1.5-0.3-3.1-2.2-5.3-2.8c-0.3,0.1-0.5,0.2-0.8,0.3c-10.5,4-71.9,26.8-103.5,30.6
	C415.9,402.2,381.5,397.2,369.5,393.3z M447.5,601.2c0-0.4,0-1,0.2-1.4c0,0,0.9-0.7,2.4-1.4c4.1-2,13-5.1,22.3,0.1
	c0,0,11.2,6.3,9.2,16c0,0.3,0,0.6,0,0.9c0,0-0.6,4.6-8.2,6.5c0,0-0.2-1-0.6-2.5C471.2,613.4,465.9,601.8,447.5,601.2z M351.3,633.2
	c6.9-4.4,24.2-8.3,24.2-8.3l36.7-2c6.5,0,8.8-2.3,8.8-2.3c7.9-6.9,17.4-10.1,17.4-10.1c13.8-5.2,20.3,5.6,20.3,5.6
	c7.9,11.1,2,16.7,2,16.7s2.6,5.7,0.7,11.8c0,0-1.5,0.8-2.5-0.5c0,0-4.3-4.9-6.5-5.4c0,0-0.4,0-1-0.1c-3.4,2.1-9.4,4.6-15.4,1.1
	c0,0-4-3.1-8.7-5.2c-3.9,1.7-7,3.7-8.2,4.5l-70.3,3.4c0,0-2.5-4.2,0.7-7.6c0,0,0,0,0,0c0.3-0.3,0.7-0.6,1.1-0.9l0.1-0.1
	C350.7,633.5,351,633.4,351.3,633.2z M180.4,715c2.1-5.3,12.6-2.7,16.1-0.7c4.4,2.5,8.2,6.4,11.2,10.5c1.2,1.7,3.8,4.5,4.1,6.6
	c2.2,13-12.8,12.5-12.8,12.5C196.9,737.4,180.4,715,180.4,715z M165.8,722.4c1.9-1.2,3.1-1.6,5.5-2c0,0,9.1-1.2,22.3,25.8
	c0,0,1.2,11.5-16,12.3c0,0-6.4-2.2-9.3-5.6c-1.1-4.4-2.2-8.8-3.3-13.2C163.8,734,159.7,726.3,165.8,722.4z M153.1,729
	c0,0,10.8,22.6,4.9,29.5c0,0-7.9,5.9-15.7,2C142.3,760.5,136.4,730,153.1,729z M202.3,562.7c4.3-2.9,9-4.9,11.3-8.8
	c-0.6-14.1-14.8-44-14.8-44c-1.2-2.6,1.4-6.4,2.9-8.4c0.6-0.8,1.3-1.7,2.1-2.4c6.3,18.6,12.6,37.2,27.1,47.1
	c-1.5-7.4-5.9-13.7-8.4-20.7c-4.1-11.4-6-26-6.2-38.1c-0.1-3.4,0.8-6.8,1.4-10.3c10.6-13,30.2-16.8,44.6-23.9
	c8.3-4.1,16.8-7.2,25-11.6c4-2.1,7.5-4.2,9.8-6.4c7.5,7.4,10.5,22.8,7.5,37.8c0,0-6.3,7.4-15.1,8.9c0,0-5.7,1.4-21.4-19
	c1.8,9.2,4.7,17.2,8.3,24.5c4.3,3.1,8.2,6.9,12,10.5c5.7-4.5,11.9-8.8,18.3-12.8c4.4-3,9-5.7,13.9-8.1
	c32.2-17.5,64.6-27.8,64.6-27.8l0,0c3.9-1.5,7.7-3.2,11.3-5.3c2.3-1.4,4.5-2.8,6.6-4.5c1.3-1,4.1-5.5,5.5-5.7c0,0-0.2,0-0.2,0
	c0.6-0.8,1.3-1.4,2.6-1.4c0,0,1.6,12.7-21.5,25.2c0,0-4.7,1.5-10.8,4.8c-7.2,2.8-14.3,5.7-21.4,8.8c-14.8,6.5-29.3,13.9-42.9,22.6
	c-9.5,6.1-19.2,13.4-25.8,22.7c-2.1,3-3.8,6.3-5.5,9.6c-6.2,12.2-12.7,24.2-18.6,36.6c-4.9,10.1-9.6,20.2-14,30.4
	c0,0-44,38.3-49.5,47.6c-2.6-0.1-7,0.3-12.6,2.2c-0.8,0.3-1.6,0.6-2.4,1c-6.7,2.8-14.6,7.9-22.9,17.3c0,0-19.6,25-4.2,51.1
	c-5.7,0.6-10.8,2.3-14.3-1.6c-4.1-6.5-5.7-17.8-4.1-29.8c0.7-5.6,3.9-13.7,7.5-20.1c2.4-4,5.1-7.5,7.9-10.7c0.5-0.6,1.1-1.2,1.6-1.7
	c16.1-16.8,36.4-22.9,36.4-22.9c6.9-5.5,10.5-9.3,12.4-11.9c0.1-0.1,0.2-0.2,0.3-0.3c0-0.1,0.1-0.2,0.1-0.3c1.5-2.2,1.7-3.4,1.6-4
	c0-0.7,0.6-15.3-3.5-24.3c-2.3,0.3-7,1.1-10.9,2.3c-0.2,0.2-0.4,0.4-0.6,0.6l-10.8,9.7c0,0-2.9,6.4-3.3,10.3l-2.8,4.3l-27.7,21.6
	c0,0-2.7,3.7-5.2,5.5c-0.5-1-1.6-1.5-1.6-3c0.8-3.9,2.5-6.7,2.6-11.3c9.3-9.2,20.9-16,28.2-27.4C185.5,589,198.2,580.4,202.3,562.7z
	 M58.1,337.1l-18.5,6.2c2-4.4,5.8-10.9,11.8-14.3c0,0,6.3-4,13.7-5.1l-1.9,10.7l8.5-3.9l-0.1,0.4c-1.6,9.6-6.9,20.2-6.9,20.2
	c6.6-3.1,10.8-9.3,13.2-13.8c1-1.2,1.9-2.3,2.5-3.1l0.1,0l-0.1,0.2c0.1,0.5,0.1,1.3,0.1,2.7c0,0-1.5,25.9-25.7,27.2l2.4-10
	c0,0-1.3,0.3-2.9,0.8v0l-7.8,1.7c0,0-0.1,0-0.1,0l0,0l-0.1,0c1.7-1.8,4.7-5.2,7.3-9.3l1-1.3c0,0,0-0.2,0.1-0.6
	C56.2,343.1,57.5,340.1,58.1,337.1z M350.8,102.6c-0.3,1.1,0.8,0.8,0.8,1.6c2,0,2.8-1.3,4.9-1.2c-1.5-0.7-3-1.4-5.3-1.2
	C351.2,102.3,351.1,102.5,350.8,102.6z M371.1,117.5c-2.1,0.3-3.8,1-4.9,2.4c0.2,1.2,0.8,1.8,1.9,2
	C369.6,121,370.5,119.5,371.1,117.5z M312.3,158.3c0,0-7.4,22.1,7.4,17.6C319.6,175.9,310,173,312.3,158.3z M357.9,111.5
	c-1.8-0.1-3.3,0.3-4.1,1.2c0,0.7,0.5,0.9,0.4,1.6C356.5,114.5,357,112.8,357.9,111.5z M372.6,94.6c-1-3.4-5.4-1.6-5.6,1.2
	C368.8,96.2,371.7,96.8,372.6,94.6z M324.4,107.5c6.6,1,9-0.8,12.8-3.2c-4-0.7-8.2-1.2-10.9-3.2C324.4,102.3,324,104.6,324.4,107.5z
	 M204.2,148.5c-0.1,0.1-0.1,0.3-0.2,0.4c0,0,0.1,0,0.2,0V148.5z M320,103c0-0.3-0.1-0.5-0.2-0.7c-1.6,0.4-6,1-12.7-2.6
	c-0.1,0-0.2,0-0.3,0.1C306,107.7,317.6,108.7,320,103z M318.9,98.3c3.4-1.5,5.7-4.1,8.2-6.6c2,0.6,0.6,3.2,0.4,4.8
	c4.2,3.4,12.2,2.1,13.5-3.2c-2.1-1.7-4.5-2.4-4.5-5.6c2.5-1,4.1,2.3,6.4,2.4c0.7,0,7.1-3.9,7.1-3.9l-1.6,3.3
	c3.6,2.1,9.9,1.2,12.2,4.6c2.7-0.3,4.6-1.5,6.4-2.8c-0.2-3.4-5.6-1.3-7.9-2.4c-0.7-0.9,1-1.7,0-3.2c-2.6-0.8-4.2-2.5-6.4-3.6
	c-0.9-2.8-0.8-6.7-4.1-6.8c0.3,6-1.6,9.2-7.5,7.2c-4.9-1.7-10.2-14.3-19.2-13.7c-1.1,0.1-8,2.3-6.8,6c0,1.4,1.4,1.2,2.6,1.2
	c0.6,1.7,1.1,3.7,2.6,4.4c1.9,0.3,2.7-0.6,4.1-0.8c0.3,4.8-5.6,6.3-5.6,12.1c-2.7,1.4-6.8,1.2-9.7,2
	C312.1,96.6,316.4,97.8,318.9,98.3z"/>
</svg>
