<?xml version="1.0" encoding="utf-8"?>
<!-- Generator: Adobe Illustrator 19.1.0, SVG Export Plug-In . SVG Version: 6.00 Build 0)  -->
<svg version="1.1" id="Layer_1" xmlns="http://www.w3.org/2000/svg" xmlns:xlink="http://www.w3.org/1999/xlink" x="0px" y="0px"
	 viewBox="0 0 295.8 348.1" style="enable-background:new 0 0 295.8 348.1;" xml:space="preserve">
<style type="text/css">
	.st0{fill:#243C65;}
	.st1{fill:#B34826;}
	.st2{fill:#FFFFFF;}
	.st3{fill:#C43C3B;}
	.st4{fill:#B22626;}
	.st5{display:none;fill:#243C65;}
	.st6{clip-path:url(#SVGID_2_);}
	.st7{fill:#FFFFFF;stroke:#243C65;stroke-width:20;stroke-miterlimit:10;}
	.st8{fill:#B22726;}
</style>
<polygon class="st0" points="117.6,4.6 106.2,94 131.8,103.6 "/>
<polygon class="st0" points="97.7,50.7 79,115 97,105.8 "/>
<polygon class="st0" points="138.1,51.4 157.9,115.3 139.7,106.4 "/>
<g>
	<path class="st0" d="M189.4,211.2C189.4,211.2,189.4,211.2,189.4,211.2L189.4,211.2c1.3-76.6-53.8-123.4-60-128.5
		c-7.4-6-11.8-6.5-13.2-6.5c-1.4-0.1-5.8,0.3-13.4,6c-6.5,4.9-63.2,49.8-64.5,126.3h0c0,0,0,0,0,0s0,0,0,0l0,0
		C36.9,285.1,92,332,98.3,337.1c7.4,6,11.7,6.5,13.1,6.5c1.4,0.1,5.8-0.3,13.4-6C131.3,332.6,188,287.7,189.4,211.2L189.4,211.2
		C189.4,211.2,189.4,211.2,189.4,211.2z"/>
	<path class="st1" d="M140.2,106c0,0,46.1,52.1,38.1,127.5c0,0,5.6-14.9,5.3-28.7C183.5,198.5,183,153.1,140.2,106z"/>
	<path class="st2" d="M65,176.3c3.6-11.5,9.2-23.3,15.5-33.7c-2.6,0.9-5.2,1.8-8,2.9c-10.7,20-16.3,41.2-16.7,63.4
		c-0.2,13,2.6,27.1,7.3,41C56.2,220.2,59.1,195.5,65,176.3z"/>
	<path class="st2" d="M88.5,130.4c-3.8,1.6-7.2,3.2-9.8,4.6c-2.2,3.4-4.3,6.9-6.1,10.4c2.7-1,5.4-2,8-2.9
		C83.1,138.3,85.8,134.2,88.5,130.4z"/>
	<path class="st2" d="M105.3,111.8c9.1-7.2,17.5-7.2,24.1-4.9c-5.6-5.9-9.9-9.5-11.2-10.6c0,0,0,0,0,0c-1.4-1.1-3.4-1.2-4.8-0.1
		c0,0,0,0,0,0c-2.7,2-16.7,13-30.4,32.4c-1.5,2.1-2.9,4.2-4.3,6.3c2.7-1.4,6-3,9.8-4.6C94.4,122.4,100.3,115.8,105.3,111.8z"/>
	<path class="st3" d="M147.5,129.8c-1.7-2.6-3.5-5.1-5.2-7.5c-4.6-6.2-9-11.3-12.8-15.4c-6.7-2.3-15.1-2.3-24.1,4.9
		c-5,4-10.9,10.5-16.8,18.6c-2.7,3.8-5.4,7.8-8,12.1C74.2,153,68.6,164.8,65,176.3c-6,19.2-8.9,43.9-1.9,73.5c0.5,1.5,1.1,3,1.6,4.6
		c-6-50,12.3-81.8,19-91.5c2.4-7.5,5.4-14.9,9.1-21.9c-5.6,27.6-7.4,51.7-7,72.4c11.8-49.7,42.2-69.8,58.7-77.2c2.1-1,4-1.7,5.6-2.3
		C149.3,132.6,148.4,131.2,147.5,129.8z"/>
	<path class="st4" d="M83.8,162.8c-6.7,9.8-25,41.5-19,91.5c2.4,6.6,5.2,13.1,8.3,19.3c4,8.1,8.5,15.9,13.1,23c0,0-2.5-8.1-5-21.1
		C76.1,249.6,70.7,203.9,83.8,162.8z"/>
	<path class="st4" d="M153.6,140.3c-0.1-0.1-0.2-0.1-0.3-0.2C153.4,140.2,153.5,140.2,153.6,140.3c-1.1-2.1-2.3-4.2-3.5-6.3
		c-1.6,0.6-3.5,1.3-5.6,2.3c0.8,0.2,0.8,0.2,0,0c-16.5,7.4-46.9,27.4-58.7,77.2c-1.1,24.2,3.9,46.3,10,63.5
		c2.2,6.2,3.6,10.2,5.8,15.1c5.9,12.9,12.1,22.2,12.1,22.2c26.2-16.7,39.7-41.2,39.8-41.5c2.3-5.1,5.8-16,7.5-21.4
		c4.3-13.3,6.8-27.3,7-40.5C168.6,186.2,165.2,162.6,153.6,140.3z"/>
	<path class="st0" d="M67.8,227.6c0,0,0.5-0.4,1.4-0.9c0.9-0.5,2.2-1.2,3.8-1.8c1.6-0.6,3.4-1.3,5.4-1.8c2-0.5,4.1-1,6.3-1.3
		c2.2-0.3,4.3-0.5,6.4-0.5c2.1,0,4,0,5.7,0.2c0.8,0.1,1.6,0.2,2.3,0.3c0.7,0.1,1.3,0.2,1.8,0.4c1,0.2,1.6,0.5,1.6,0.5
		s-0.5,0.4-1.4,0.9c-0.4,0.3-1,0.5-1.6,0.9c-0.6,0.3-1.3,0.6-2.1,1c-1.6,0.6-3.4,1.3-5.4,1.8c-2,0.5-4.1,1-6.3,1.3
		c-2.2,0.3-4.4,0.5-6.4,0.5c-2.1,0-4-0.1-5.7-0.2c-1.7-0.2-3.1-0.5-4.1-0.7C68.4,227.8,67.8,227.6,67.8,227.6z"/>
	<path class="st0" d="M67.3,181.1c0,0,0.6-0.2,1.6-0.5c1-0.3,2.4-0.6,4.1-0.8c1.7-0.2,3.6-0.4,5.7-0.4c2.1,0,4.3,0.1,6.4,0.3
		c2.2,0.2,4.3,0.6,6.4,1c2,0.5,3.9,1,5.5,1.6c0.8,0.3,1.5,0.6,2.2,0.9c0.6,0.3,1.2,0.6,1.7,0.8c0.9,0.5,1.4,0.8,1.4,0.8
		s-0.6,0.2-1.6,0.5c-0.5,0.1-1.1,0.3-1.8,0.4c-0.7,0.1-1.5,0.3-2.3,0.4c-1.7,0.2-3.6,0.4-5.7,0.4c-2.1,0-4.3-0.1-6.4-0.3
		c-2.2-0.2-4.3-0.6-6.4-1c-2-0.5-3.9-1-5.5-1.6c-1.6-0.6-2.9-1.2-3.8-1.7C67.8,181.5,67.3,181.1,67.3,181.1z"/>
	<path class="st0" d="M66.8,203.9c0,0,0.5-0.3,1.5-0.7c0.9-0.4,2.3-0.9,3.9-1.4c1.6-0.5,3.5-0.9,5.6-1.2c2-0.3,4.2-0.5,6.4-0.6
		c2.2-0.1,4.4,0,6.4,0.1c2.1,0.2,4,0.5,5.6,0.8c0.8,0.2,1.6,0.4,2.3,0.6c0.7,0.2,1.3,0.4,1.7,0.6c1,0.3,1.5,0.6,1.5,0.6
		s-0.5,0.3-1.5,0.7c-0.5,0.2-1,0.4-1.7,0.7c-0.7,0.2-1.4,0.5-2.2,0.7c-1.6,0.5-3.5,0.9-5.6,1.2c-2,0.3-4.2,0.5-6.4,0.6
		c-2.2,0.1-4.4,0-6.4-0.2c-2.1-0.2-4-0.5-5.6-0.8c-1.7-0.4-3-0.8-4-1.1C67.4,204.2,66.8,203.9,66.8,203.9z"/>
	<path class="st0" d="M147.2,226.7c3.7,34.3,0.2,77-24.4,103.6c-3.9-4.3-7.9-8.6-11.8-13C136.9,297.3,145.4,257.3,147.2,226.7z"/>
</g>
<g>
	<g>
		<rect x="64.5" y="245.6" class="st0" width="93.4" height="50.4"/>
	</g>
	<g>
		<path class="st5" d="M168.5,150.4l11.1,22.5c0.9,1.8,3.3,3.6,5.4,3.9l24.8,3.6l-17.9,17.5c-1.5,1.4-2.4,4.3-2,6.3l4.2,24.7
			l-22.2-11.7c-1.8-1-4.8-1-6.6,0L143,228.9l4.2-24.7c0.3-2-0.6-4.9-2-6.3l-17.9-17.5l24.8-3.6c2-0.3,4.4-2,5.4-3.9L168.5,150.4z"/>
		<g>
			<defs>
				<rect id="SVGID_1_" x="-2" y="204.9" width="293.2" height="60"/>
			</defs>
			<clipPath id="SVGID_2_">
				<use xlink:href="#SVGID_1_"  style="overflow:visible;"/>
			</clipPath>
			<g class="st6">
				<path class="st7" d="M12.8,253.9V215h14.1c11.7,0,19.5,7.5,19.5,19.5c0,12-7.8,19.4-19.6,19.4H12.8z M26.5,245.7
					c6,0,10.9-3.5,10.9-11.3s-4.9-11.3-10.9-11.3h-5v22.6H26.5z"/>
				<path class="st7" d="M52,241.1v-7.5h16.5v7.5H52z"/>
				<path class="st7" d="M76.2,253.9V215h8.7v30.6h16.8v8.3H76.2z"/>
				<path class="st7" d="M106.9,253.9V215h24.6v8.2h-16v7.4H130v7.6h-14.5v7.5h16v8.2H106.9z"/>
				<path class="st7" d="M161.7,246h-15l-2.8,7.9h-9.1l14.7-38.9h10l14.5,38.9h-9.4L161.7,246z M149.5,238.1h9.4l-4.7-13.4
					L149.5,238.1z"/>
				<path class="st7" d="M206.2,253.9l-0.5-4c-1.7,2.5-5.4,4.8-10.9,4.8c-10.8,0-19.7-8-19.7-20.3c0-12.2,9.3-20.3,20.3-20.3
					c11.1,0,16.3,6.6,18,12l-8.3,2.9c-0.6-2.4-3.2-6.8-9.7-6.8c-5.3,0-11.5,3.5-11.5,12.2c0,8.1,5.4,12.3,11.7,12.3
					c6.4,0,9.1-4.2,9.6-6.4h-11.7v-7.4h19.8v20.8H206.2z"/>
				<path class="st7" d="M220.2,239.9V215h8.7v24.1c0,4.7,2.6,7.1,6.8,7.1s6.8-2.4,6.8-7.1V215h8.7v24.9c0,9.8-6.9,14.9-15.4,14.9
					S220.2,249.6,220.2,239.9z"/>
				<path class="st7" d="M259.5,253.9V215h24.6v8.2h-16v7.4h14.5v7.6h-14.5v7.5h16v8.2H259.5z"/>
			</g>
		</g>
		<g>
			<path class="st2" d="M12.4,252.9V214h14.1c11.7,0,19.5,7.5,19.5,19.5c0,12-7.8,19.4-19.6,19.4H12.4z M26.2,244.7
				c6,0,10.9-3.5,10.9-11.3s-4.9-11.3-10.9-11.3h-5v22.6H26.2z"/>
			<path class="st2" d="M51.6,240.1v-7.5h16.5v7.5H51.6z"/>
			<path class="st2" d="M75.8,252.9V214h8.7v30.6h16.8v8.3H75.8z"/>
			<path class="st2" d="M106.5,252.9V214h24.6v8.2h-16v7.4h14.5v7.6h-14.5v7.5h16v8.2H106.5z"/>
			<path class="st2" d="M161.3,245h-15l-2.8,7.9h-9.1l14.7-38.9h10l14.5,38.9h-9.4L161.3,245z M149.2,237.1h9.4l-4.7-13.4
				L149.2,237.1z"/>
			<path class="st2" d="M205.9,252.9l-0.5-4c-1.7,2.5-5.4,4.8-10.9,4.8c-10.8,0-19.7-8-19.7-20.3c0-12.2,9.3-20.3,20.3-20.3
				c11.1,0,16.3,6.6,18,12l-8.3,2.9c-0.6-2.4-3.2-6.8-9.7-6.8c-5.3,0-11.5,3.5-11.5,12.2c0,8.1,5.4,12.3,11.7,12.3
				c6.4,0,9.1-4.2,9.6-6.4h-11.7v-7.4h19.8v20.8H205.9z"/>
			<path class="st2" d="M219.9,238.8V214h8.7v24.1c0,4.7,2.6,7.1,6.8,7.1s6.8-2.4,6.8-7.1V214h8.7v24.9c0,9.8-6.9,14.9-15.4,14.9
				S219.9,248.6,219.9,238.8z"/>
			<path class="st2" d="M259.1,252.9V214h24.6v8.2h-16v7.4h14.5v7.6h-14.5v7.5h16v8.2H259.1z"/>
		</g>
		<path class="st8" d="M154.1,222.4l2.5,5c0.2,0.4,0.7,0.8,1.2,0.9l5.5,0.8l-4,3.9c-0.3,0.3-0.5,1-0.5,1.4l0.9,5.5l-5-2.6
			c-0.4-0.2-1.1-0.2-1.5,0l-5,2.6l0.9-5.5c0.1-0.5-0.1-1.1-0.5-1.4l-4-3.9l5.5-0.8c0.5-0.1,1-0.5,1.2-0.9L154.1,222.4z"/>
	</g>
</g>
<rect x="99.5" y="292.8" class="st0" width="28.7" height="32.4"/>
</svg>
