<?xml version="1.0" encoding="utf-8"?>
<!-- Generator: Adobe Illustrator 19.1.0, SVG Export Plug-In . SVG Version: 6.00 Build 0)  -->
<svg version="1.1" id="Layer_1" xmlns="http://www.w3.org/2000/svg" xmlns:xlink="http://www.w3.org/1999/xlink" x="0px" y="0px"
	 viewBox="0 0 270.2 338.9" style="enable-background:new 0 0 270.2 338.9;" xml:space="preserve">
<style type="text/css">
	.st0{fill:#243C65;}
	.st1{fill:#B34826;}
	.st2{fill:#FFFFFF;}
	.st3{fill:#C43C3B;}
	.st4{fill:#B22626;}
	.st5{clip-path:url(#SVGID_2_);fill:#FFFFFF;}
	.st6{clip-path:url(#SVGID_2_);fill:#243C65;}
	.st7{clip-path:url(#SVGID_4_);}
	.st8{fill:#FFFFFF;stroke:#243C65;stroke-width:20;stroke-miterlimit:10;}
	.st9{display:none;}
	.st10{display:inline;fill:#FFFFFF;stroke:#243C65;stroke-width:10;stroke-miterlimit:10;}
	.st11{display:inline;}
	.st12{fill:#B22726;}
</style>
<polygon class="st0" points="102.3,338.9 114.4,249.6 88.9,239.7 "/>
<polygon class="st0" points="123.6,293.9 142.8,229.8 124.7,238.9 "/>
<polygon class="st0" points="86.2,293.9 66.9,229.8 85,238.9 "/>
<g>
	<path class="st0" d="M179.3,135C179.3,135,179.3,135,179.3,135L179.3,135c1.3-76.6-53.8-123.4-60-128.5c-7.4-6-11.8-6.5-13.2-6.5
		c-1.4-0.1-5.8,0.3-13.4,6c-6.5,4.9-63.2,49.8-64.5,126.3h0c0,0,0,0,0,0c0,0,0,0,0,0l0,0c-1.3,76.6,53.8,123.4,60,128.5
		c7.4,6,11.7,6.5,13.1,6.5c1.4,0.1,5.8-0.3,13.4-6C121.3,256.5,178,211.6,179.3,135L179.3,135C179.3,135,179.3,135,179.3,135z"/>
	<path class="st1" d="M130.1,29.8c0,0,46.1,52.1,38.1,127.5c0,0,5.6-14.9,5.3-28.7C173.5,122.3,173,77,130.1,29.8z"/>
	<path class="st2" d="M55,100.1c3.6-11.5,9.2-23.3,15.5-33.7c-2.6,0.9-5.2,1.8-8,2.9c-10.7,20-16.3,41.2-16.7,63.4
		c-0.2,13,2.6,27.1,7.3,41C46.2,144,49.1,119.3,55,100.1z"/>
	<path class="st2" d="M78.5,54.3c-3.8,1.6-7.2,3.2-9.8,4.6c-2.2,3.4-4.3,6.9-6.1,10.4c2.7-1,5.4-2,8-2.9
		C73.1,62.1,75.8,58,78.5,54.3z"/>
	<path class="st2" d="M95.3,35.7c9.1-7.2,17.5-7.2,24.1-4.9c-5.6-5.9-9.9-9.5-11.2-10.6c0,0,0,0,0,0c-1.4-1.1-3.4-1.2-4.8-0.1
		c0,0,0,0,0,0c-2.7,2-16.7,13-30.4,32.4c-1.5,2.1-2.9,4.2-4.3,6.3c2.7-1.4,6-3,9.8-4.6C84.4,46.2,90.3,39.6,95.3,35.7z"/>
	<path class="st3" d="M137.5,53.6c-1.7-2.6-3.5-5.1-5.2-7.5c-4.6-6.2-9-11.3-12.8-15.4c-6.7-2.3-15.1-2.3-24.1,4.9
		c-5,4-10.9,10.5-16.8,18.6c-2.7,3.8-5.4,7.8-8,12.1C64.2,76.9,58.6,88.6,55,100.1c-6,19.2-8.9,43.9-1.9,73.5c0.5,1.5,1.1,3,1.6,4.6
		c-6-50,12.3-81.8,19-91.5c2.4-7.5,5.4-14.9,9.1-21.9c-5.6,27.6-7.4,51.7-7,72.4c11.8-49.7,42.2-69.8,58.7-77.2c2.1-1,4-1.7,5.6-2.3
		C139.2,56.4,138.4,55,137.5,53.6z"/>
	<path class="st4" d="M73.7,86.7c-6.7,9.8-25,41.5-19,91.5c2.4,6.6,5.2,13.1,8.3,19.3c4,8.1,8.5,15.9,13.1,23c0,0-2.5-8.1-5-21.1
		C66.1,173.4,60.7,127.7,73.7,86.7z"/>
	<path class="st4" d="M143.6,64.1c-0.1-0.1-0.2-0.1-0.3-0.2C143.4,64,143.5,64.1,143.6,64.1c-1.1-2.1-2.3-4.2-3.5-6.3
		c-1.6,0.6-3.5,1.3-5.6,2.3c0.8,0.2,0.8,0.2,0,0c-16.5,7.4-46.9,27.4-58.7,77.2c-1.1,24.2,3.9,46.3,10,63.5
		c2.2,6.2,3.6,10.2,5.8,15.1c5.9,12.9,12.1,22.2,12.1,22.2c26.2-16.7,39.7-41.2,39.8-41.5c2.3-5.1,5.8-16,7.5-21.4
		c4.3-13.3,6.8-27.3,7-40.5C158.5,110,155.2,86.4,143.6,64.1z"/>
	<path class="st0" d="M57.8,151.4c0,0,0.5-0.4,1.4-0.9c0.9-0.5,2.2-1.2,3.8-1.8c1.6-0.6,3.4-1.3,5.4-1.8c2-0.5,4.1-1,6.3-1.3
		c2.2-0.3,4.3-0.5,6.4-0.5c2.1,0,4,0,5.7,0.2c0.8,0.1,1.6,0.2,2.3,0.3c0.7,0.1,1.3,0.2,1.8,0.4c1,0.2,1.6,0.5,1.6,0.5
		s-0.5,0.4-1.4,0.9c-0.4,0.3-1,0.5-1.6,0.9c-0.6,0.3-1.3,0.6-2.1,1c-1.6,0.6-3.4,1.3-5.4,1.8c-2,0.5-4.1,1-6.3,1.3
		c-2.2,0.3-4.4,0.5-6.4,0.5c-2.1,0-4-0.1-5.7-0.2c-1.7-0.2-3.1-0.5-4.1-0.7C58.4,151.6,57.8,151.4,57.8,151.4z"/>
	<path class="st0" d="M57.2,105c0,0,0.6-0.2,1.6-0.5c1-0.3,2.4-0.6,4.1-0.8c1.7-0.2,3.6-0.4,5.7-0.4c2.1,0,4.3,0.1,6.4,0.3
		c2.2,0.2,4.3,0.6,6.4,1c2,0.5,3.9,1,5.5,1.6c0.8,0.3,1.5,0.6,2.2,0.9c0.6,0.3,1.2,0.6,1.7,0.8c0.9,0.5,1.4,0.8,1.4,0.8
		s-0.6,0.2-1.6,0.5c-0.5,0.1-1.1,0.3-1.8,0.4c-0.7,0.1-1.5,0.3-2.3,0.4c-1.7,0.2-3.6,0.4-5.7,0.4c-2.1,0-4.3-0.1-6.4-0.3
		c-2.2-0.2-4.3-0.6-6.4-1c-2-0.5-3.9-1-5.5-1.6c-1.6-0.6-2.9-1.2-3.8-1.7C57.8,105.3,57.2,105,57.2,105z"/>
	<path class="st0" d="M56.8,127.7c0,0,0.5-0.3,1.5-0.7c0.9-0.4,2.3-0.9,3.9-1.4c1.6-0.5,3.5-0.9,5.6-1.2c2-0.3,4.2-0.5,6.4-0.6
		c2.2-0.1,4.4,0,6.4,0.1c2.1,0.2,4,0.5,5.6,0.8c0.8,0.2,1.6,0.4,2.3,0.6c0.7,0.2,1.3,0.4,1.7,0.6c1,0.3,1.5,0.6,1.5,0.6
		s-0.5,0.3-1.5,0.7c-0.5,0.2-1,0.4-1.7,0.7c-0.7,0.2-1.4,0.5-2.2,0.7c-1.6,0.5-3.5,0.9-5.6,1.2c-2,0.3-4.2,0.5-6.4,0.6
		c-2.2,0.1-4.4,0-6.4-0.2c-2.1-0.2-4-0.5-5.6-0.8c-1.7-0.4-3-0.8-4-1.1C57.4,128,56.8,127.7,56.8,127.7z"/>
	<path class="st0" d="M137.2,150.5c3.7,34.3,0.2,77-24.4,103.6c-3.9-4.3-7.9-8.6-11.8-13C126.9,221.2,135.4,181.2,137.2,150.5z"/>
</g>
<g>
	<g>
		<g>
			<defs>
				<path id="SVGID_1_" d="M174.9,128.9C174.9,128.9,174.9,128.9,174.9,128.9L174.9,128.9c1.3-72.1-50.6-116.2-56.6-121
					c-7-5.7-11.1-6.1-12.4-6.1c-1.3-0.1-5.5,0.3-12.6,5.7c-6.1,4.6-59.5,46.9-60.7,119h0c0,0,0,0,0,0s0,0,0,0l0,0
					c-1.3,72.1,50.6,116.2,56.6,121c6.9,5.6,11.1,6.1,12.4,6.1c1.3,0.1,5.4-0.3,12.6-5.7C120.3,243.3,173.7,201,174.9,128.9
					L174.9,128.9C174.9,128.9,174.9,128.9,174.9,128.9z"/>
			</defs>
			<clipPath id="SVGID_2_">
				<use xlink:href="#SVGID_1_"  style="overflow:visible;"/>
			</clipPath>
			<path class="st5" d="M21.1,156.9c5.5,1.9,9.7-2.8,10.2-3.4c-0.8-0.7-1.7-0.5-1.7-0.5c-1.3,0.7-2.8,1-2.8,1
				c-1.8,0.4-2.8-1.4-2.8-1.4c-0.3-1.2,0.4-2.1,1-2.6c0,0,0,0,0,0c0,0,0.1-0.1,0.1-0.1c0.3-0.2,0.4-0.3,0.4-0.3l0,0
				c1.7-1,4-1.1,4-1.1c4.9-0.1,8-1.6,8-1.6c5.4-2.6,4.3-10,3.7-12.7c0,0,0.1-0.1,0.1-0.1c2.9-1.8,6.3,1.4,7.3,3.8
				c1.6,3.8,1.2,7.9-0.1,11.7c-0.2,0.7-0.5,1.3-0.9,2c-2,3.5-5.1,6.2-6.4,10c-0.8,2.4-1,5.4-0.9,7.9c0.6,10.7,9.7,19.1,20.7,17.7
				c0.9,2.1,3.6,8.8,3.2,13.1c-0.9,2.2-3.1,3.4-5.3,4.4c0.1,0,0.2,1.7,0.1,1.8c-0.1,1.1-0.4,2.1-0.9,3.1c-1.3,2.6-3.6,3.4-6.4,3.9
				c-1.9,0.3-3.8,0.4-5.7,0.1c-0.6-0.1-1.2-0.2-1.8-0.3c0,0-1.6,0,0.1,1.6c0.1,0.3,0.5,0.6,0.9,0.9l0.9,0.9c0,0,0,0.1,0,0.1
				c0,0,0,0.1-0.1,0.1c-1.2,0.9-2.2,2.5-2.7,3.3c-0.1,0.1-0.2,0.3-0.2,0.4c0,0,0,0,0,0c-0.8,1.6,0.5,1.3,0.5,1.3
				c1.6-0.6,2.6-0.2,2.9,0c0,0,0,0,0,0.1c-2.1,3.9-2.6,6.4-2.7,7.8c-0.1,0.4-0.1,0.7,0,1.1c0,0,0,0.1,0,0.1c0.3,0,0.6,0,0.9-0.1
				c1.1-0.2,2.5-0.4,3-0.5c0,0,0,0.1,0,0.2c-0.1,2.3-0.3,9.2,0,11.7c0,0,1.1,1.7,1,3.5c0,0,0.5,7.6,4.4,11c0,0,0,0.1,0.1,0.1
				c1.1,0.1,2.3,0.2,3.6,0.1c1.1,0.8,2.1,3.1,2.1,3.1c0.3,0.8,1.5,0.2,1.5,0.2c0.5-1.2,0.3-2.5,0-3.4c0.7,0,1.5,0.1,2.3,0.3l1,0.1
				c0.9,0.2,1.7,0.1,2.4,0c0.7,0.9,1.2,2.1,1.2,2.1c0.3,0.8,1.5,0.2,1.5,0.2c0.5-1.3,0.3-2.7,0-3.6c1.3-1.1,2-2.4,2-2.4
				c0.9-0.1,1.6-0.2,2.3-0.5c0.3,1.4,0.4,2.8,0.4,2.8c0,1.1,1.3,0.8,1.3,0.8c1.2-1.8,1.2-4.4,1.1-5.5c1.3-1.5,1.5-3.2,1.5-3.2
				c-0.9-5.9-5.1-10.4-5.1-10.4c-1-1.5-3-1.7-4-1.7c0,0,0,0-0.1,0c-6.2,0.7-6.9-2.5-6.9-2.5c1.6-5.9,7.2-7,8.9-7.2
				c0.1,0,0.2,0,0.3,0c0,0,0,0,0,0c1.6-0.4,2.8-1.2,3.1-1.5c2.2-3.6,8.9-10.1,13.1-14.1c0.4-0.3,0.7-0.7,1.1-1
				c1.9-5.1,5.5-10.4,5.5-10.4c1.7,0.6,2.8,1.8,4.4,2.5c7.1-2.8,11.7-3.2,13.1-3.3c0.2,0,0.4,0.7,0.4,0.8c0.1,0.6-0.2,1.6-0.7,2
				c-0.6,0.6-1.5,1-2.3,1.3c0,0-4.3,1.1-8.6,7.8c-0.1,0.4-0.2,0.8-0.2,1.3c-0.1,0-0.1,0-0.2-0.1c-0.7-0.2-3.4-1-5.1-0.5
				c0,0,0,0,0,0.1c1.8,1.7,2.5,6.9,2.5,6.9c-2.1,1.6-1.5,4.2-1.5,4.2c0,0.6,0.4,0.8,0.4,0.8c2.3-1.7,7.4,0.4,9.7,1.5
				c-1.5,1.9-0.4,4.5-0.4,4.5c0,0.3,0.4,0.3,0.4,0.3c0.2-0.2,0.6-0.4,1-0.6c9.6-4.3,22.5-3.8,25.6-3.6c0,0,3.6,0.7,3.6,0.7
				c0,0,0.1,0,0.1,0l0.2,0l0.1,0c0.1,0,0.3,0,0.4-0.1l3-0.6c0.8,0.7,1.4,2.1,2.6,2c1.5-0.1,3.7-4.2,3.2-6.8c0.6-0.1,1,0.3,1.5,0.2
				c0.4-0.1,0.7-0.4,1.1-0.4c1.4,0,2.2,1.6,3,2.7c1.6-1.7,1.4-6.8-0.7-7.8c0.1-2-0.5-3.4-1.5-4.5c-2.1-2.3-4.6-3.2-6.6-3.4l0.1,0
				c0,0-0.6-0.1-1.6-0.1c-0.9,0-1.5,0.1-1.5,0.1l0,0c-2.2,0.3-5.4,1.3-8.3,4.1c0,0-0.9,1.7-3.4,1.8c0,0-0.1,0-0.4,0
				c-0.2,0-0.3,0-0.5,0l-1.4-0.2c-2.8-0.3-7.3-0.7-8.4-0.8c0,0,0.4-0.7,1.2-1.4c2-2,4.7-4,7.4-5.6c0.7-0.4,1.3-0.8,2-1.2
				c2.6-1.5,4.8-2.7,5.6-3.1c0.1,0,0.2-0.1,0.3-0.2c1.5-0.8,1.8-2.5,1.8-2.5c1.4-5.1-0.1-9.7-0.1-9.7c-1.9-5.7-9.1-8.6-9.1-8.6
				c-0.2,0-0.6-0.1-1.1-0.1c-0.3,0-0.7-0.1-1.1-0.1c-1.6-0.2-3.7-0.3-4.9-0.4c-0.1-0.1-0.1-0.1-0.1-0.2c0.3-1.2,1-2.4,1-2.4
				c1-2,5.8-4.3,8.6-5.4c0.6-0.2,1.3-0.5,1.9-0.7c1.2-1.4,7.2-8.4,9.4-12.8l1.3-0.3c3.4-1,7.2-1.8,10.7-2.9c1.2-0.3,2.4-0.6,3.6-1
				c1.6-0.5,3-1.3,4.7-1.4c1.9-0.1,3.7,0.4,5.5,0.9c0,0,3.8,0.9,3.8,0.9c2.9,0.4,4.5-0.5,5.3-1.3c0.2-0.2,0.3-0.4,0.4-0.6
				c0.8,0.4,1.2,1.5,1.2,1.5c0.1,0.7,0.7,0.4,0.7,0.4c2.3-3.5-0.1-5.9-0.1-5.9l-0.1,0c0.1-0.5,0.3-0.9,0.4-1.2c0-0.2,0-0.4,0.2-0.7
				c1,0.1,1.8,1.6,1.8,1.6c0.3,0.8,0.8,0.4,0.8,0.4c0,0,0,0,0,0c0-0.1,0-0.1,0-0.2c1.8-4.4-1.1-6.8-1.1-6.8l0,0c0-0.3-0.1-1-0.4-1.9
				c0.8-0.1,1.8,0.3,1.8,0.3c0.7,0.5,0.9-0.2,0.9-0.2c-1.3-4.8-5.1-4.8-5.1-4.8l0,0.1c-1.3-1.4-3.1-2.5-5.7-3c-0.2,0-0.3,0-0.4,0
				c-1.7,0.1-2.3,1.4-2.8,1.8c-1.5,1.7-4.2,3.1-6.4,3.7c-0.6,0.2-1.2,0.2-1.9,0.2c-0.2,0-0.4,0-0.5,0c0,0-0.1,0-0.1-0.1
				c-0.3-0.4-0.9-0.9-2.1-1.4c-1.5-0.7-3.2-0.8-5.1-0.7l-6.8-0.3c13.4-10.6,15-23.8,15.2-27.9c2.3-0.8,3.3-2.3,3.7-3.9
				c2.4-0.6,4.1,1.8,4.1,1.8c0.2,0.1,0.5,0.2,0.7,0.1c0.2-0.2,0.3-0.4,0.4-0.6l0-0.1c-0.1-7.3-5.7-7.9-5.7-7.9
				c-0.1-0.5-0.3-0.9-0.4-1.2c1.5-1.4,1.8-2.9,1.6-4.2c0.8-0.4,2.3-1.1,4-1c0.1-0.1,0.2-0.3,0.2-0.6c0-0.2,0-0.3-0.1-0.5
				c-0.6-0.7-2.8-2.9-6.2-2.4c-0.6-0.8-1.3-1.3-1.9-1.6c0.3-0.7,1.4-1.2,1.4-1.2c0.7-0.2,0.3-0.6,0.3-0.6c-3.3-1.7-5.4,0-5.8,0.4
				c-0.9-0.1-2.1,0-3.7,0.8c-0.3,0.2-0.6,0.3-0.9,0.5c-1.5,0.8-4.3,2.5-4.5,5.2V91c0,1.8,0,3.5,0,5.3c0,2.1,0,4.1-0.2,6.2
				c-0.7,6.6-3,13.9-9.4,17.1c0,0-3.6,0.2-5.8-0.7c3.4-2.9,3.2-7,3.2-7c-1-5.8-4.6-7.2-7-7.4c0,0-0.1,0-0.1,0c0,0,0,0-0.1,0
				c-1.3-0.1-2.1,0.1-2.1,0.1c0,0,0,0,0,0c0,0-0.1,0-0.1,0c1.4,1.3,1.4,3,1.4,3.8c0,0,0,0,0,0.1c0,0.2,0,0.3,0,0.3
				c-0.3,1.5-1.7,2.3-3,2.8c-1.7,0.7-3.6,1-5.5,0.8c0.8-1.1,3-4.6-0.6-7.9c0,0-0.3-0.2-0.7-0.3c-0.5,0.8-3,4.4-7.4,3.5
				c0,0-0.9-0.2-1.9-0.7c0,0-0.1,0-0.1,0c-0.1,0-0.1-0.1-0.2-0.1c-0.7-0.4-1.5-1-2.1-1.8c-0.8-0.9-1.3-1.9-0.8-3.4
				c0.9-2.7,6.3-2.9,9.4-2c0.1,0,0.2,0.1,0.2,0.1c1.1,0.5,1.8,1.2,1.8,1.2c0.9,0.9,2.2,0.6,2.2,0.6c3.1-1.5,2.7-4.5,2.1-6.2
				c0-0.1-0.1-0.2-0.1-0.4c-0.2-0.5-0.4-0.9-0.4-0.9c-0.1-0.7,0.4-1.3-0.1-1.8c0,0-0.6-0.6-1.4-0.5c-0.1-0.3-0.5-1.4-1.6-0.7
				c-0.1-0.4,0.2-0.7,0.6-0.8c2.4,0.8,6,3.6,6,3.6c2,1.3,3.6,2.7,6,3.3c2.4,0.5,4.8,0.4,7-0.7c3.7-1.8,5.5-7.3,3.3-10.9
				c-0.7-1.2-2.2-2.6-3.7-2.7l0,2.3c0,0.3,0.2,0.6,0.2,0.9c0.5,5-6.1,5.3-9.4,4.1c-0.8-0.2-1.7-0.5-2.5-0.8
				c-0.9-0.4-1.6-1.3-2.5-1.4c-0.6-0.1-1.3,0.2-1.9,0.1c-0.5-0.1-0.9-0.9-1.5-1c-0.9-0.2-1.8,0.3-2.7,0.5c-0.6,0-0.6-0.6-1.1-0.7
				c-0.5,0.8-1.8,0.3-2.4-0.1c-0.8,0.2-1.3,0.7-2,1c-0.7-1.1,0.3-3.7,1-3.8c1.2-0.2,0.8,1.9,1.8,2.2c0.7-0.4,1.3-0.8,1.7-1.4
				c0.7,0.2,0.8,1,1.4,1.3c0.8-0.2,1.5-0.5,2-1c0.9,0.4,1.1,1.4,1.7,2.1c2.2-1.7,5.3-2.5,7.6-4.2c-0.2-3.1,0.4-5.2,1-7.6
				c0.6-2.1,2.1-4.1,0.6-5.5l-2.3-0.2c-0.6-1.4-2.6-4.4-9-5.2c0,0-0.3,0-0.7-0.1c-0.5-0.1-1.1-0.2-1.7-0.5c-0.3-0.1-0.7-0.3-1-0.5
				c-0.2-0.5-0.2-0.9-0.7-1.5c-0.8-1.1-2-1.6-3.2-1.9l-0.5-0.2l-0.1,0c0,0-0.8-0.2-1.7-0.5c-0.6-0.2-1.3-0.5-1.8-0.7
				c-0.2-0.2-0.3-0.4-0.3-0.6c0-1.5,1.7-3.1,1.7-3.1c-1.8-0.7-3.2,0-4,0.6c-0.8-3.1,1.9-6.9,1.9-6.9c-1.7-0.4-3.1-0.1-4.1,0.6
				c-0.5,0.3-0.9,0.7-1.3,1.1c-0.8,0.9-1.2,1.8-1.5,2.4c0,0.1-0.1,0.1-0.1,0.2c-0.3-1.7,0.3-4.4,0.3-4.4s-1.7,0-3.4,1.3c0,0,0,0,0,0
				c0,0,0,0,0,0c-0.7,0.5-1.3,1.3-1.8,2.3c0,0-0.4,0.6-1.2,1.1c-0.1,0-0.1,0-0.2,0c-0.1-0.6-0.1-1.7,0.9-2.8c0,0-0.2-0.4-0.9-0.2
				c-0.8,0.1-3.5,0.5-5.1,3c-0.5-0.1-1.1-0.2-1.8-0.1c0,0-3,0-4.4-1.5c0,0-0.5-0.9-0.7,0.3c0,0-0.3,2.6,0.7,4.1
				c-0.5,0.1-1,0.2-1.4,0.4c-0.2-0.1-2.6-3.7-5.7-2c-0.1,0.1-0.1,0.3-0.2,0.4c0.3,0,0.6,0.1,0.8,0.2c0.2,0.2,2.1,2.3,0.5,4.9
				c-1.1,0-2.5-0.3-3.6-1.1c0,0-2.2-0.9-4.5,0.1c-0.4,0.1-0.8,0.4-1.2,0.7l0,0.1c-0.3,0.3-0.7,0.6-1,0.9c0,0-0.3,0.3,0.3,0.3
				c0,0,0.3,0,0.8,0c3.3-0.1,4.6,1.9,5,3.3c-0.8,0-2.5,0.2-4.1,2.3c0,0-0.7,1.8-3.1,1.5c-0.4-0.1-0.9-0.3-1.4-0.4
				c-0.8-0.1-1.9-0.1-2.7,0.6c0,0,0,0,0,0c0.5,0.3,0.9,0.9,1.1,1.3c1.1,2.7,3.2,3,4.1,3c-0.2,0.3-0.5,0.6-0.7,0.9
				c-0.9,1.3-1.8,2.7-2.5,4.2c-1,1.9-1.9,3.9-2.6,6c-0.7,2-1.4,4.1-3.5,5c-0.2,0.1-2.6,0.8-2.7,0.5c1,3.6,7.1,3.9,9.8,1.8
				c-1.7,3.5-2,7.2-2,9.6c-0.1,2.2,0.4,4.3,0.4,6.8c0,3-1.7,5.2-3.6,6.4c0.1,1.5,1.7,1.8,2.9,2c3.7,0.4,7.1-1.4,9-3.2
				c0,0,3.2,8.3,1.3,15.2c-0.4,1.9-1.3,4-3.2,5.5c-0.4,0.4-0.6,0.8-0.5,1.1c0.2,0.6,1.7,0.5,2.5,0.4c2.4-0.2,5.3-1.3,7-2.4
				c0,0,0,0.1,0,0.1c0.1,0.7,0.3,1.4,0.5,2c0.6,1.8,1.6,3.4,2.9,4.8c0.8,0.9,1.8,1.7,2.8,2.4c0.6,0.5,2.7,2.2,3.6,1.4
				c0.5-3.3,2.8-4.5,2.8-4.5s0.2,0.4,0.4,1c0.4,1,0.7,2.3,0.9,3.2c0.2,0.7,0.4,1.7,0.4,2.3c0,0-0.3,0.8-0.9,2.1
				c-0.1,0.2-0.3,0.5-0.4,0.7c-0.2,0.5-0.5,1.1-0.7,1.6c-1.5,3.3-3.9,7.7-6.7,10.9c-2.6,1.3-11.9,6.2-17.2,13.2
				c-0.3,0.3-0.5,0.6-0.6,0.8c0,0-0.7,1.8-1.4,4.2c-1.9,0.9-5.5,0.8-7.5,0.5c-8.1-1.2-10.4-11.3-8-18c0.7-2,2-3.7,3.4-5.4
				c1.3-1.7,2.2-3.4,3.1-5.4c2.1-4.6,1.7-9.7-0.2-14.3c-1.4-3.5-4.2-6.2-7.7-7.2c-1.6-0.4-4.1-0.6-7.4,0.8c-1.4,0-5.7,0.2-7.5,1.4
				c0,0-5.9,2.7-8.2,7.4c0,0-1.1,2.9-1.5,4.4l-2,7.3c-0.1,0.2-0.1,0.3-0.2,0.5C17.7,155.2,21.1,156.9,21.1,156.9z M118.3,86.5
				c0-0.1,0-0.1,0-0.2L118.3,86.5C118.4,86.5,118.3,86.5,118.3,86.5z"/>
			<path class="st6" d="M21.1,156.9c5.5,1.9,9.7-2.8,10.2-3.4c-0.8-0.7-1.7-0.5-1.7-0.5c-1.3,0.7-2.8,1-2.8,1
				c-1.8,0.4-2.8-1.4-2.8-1.4c-0.3-1.2,0.4-2.1,1-2.6c0,0,0,0,0,0c0,0,0.1-0.1,0.1-0.1c0.3-0.2,0.4-0.3,0.4-0.3l0,0
				c1.7-1,4-1.1,4-1.1c4.9-0.1,8-1.6,8-1.6c5.4-2.6,4.3-10,3.7-12.7c0,0,0.1-0.1,0.1-0.1c2.9-1.8,6.3,1.4,7.3,3.8
				c1.6,3.8,1.2,7.9-0.1,11.7c-0.2,0.7-0.5,1.3-0.9,2c-2,3.5-5.1,6.2-6.4,10c-0.8,2.4-1,5.4-0.9,7.9c0.6,10.7,9.7,19.1,20.7,17.7
				c0.9,2.1,3.6,8.8,3.2,13.1c-0.9,2.2-3.1,3.4-5.3,4.4c0.1,0,0.2,1.7,0.1,1.8c-0.1,1.1-0.4,2.1-0.9,3.1c-1.3,2.6-3.6,3.4-6.4,3.9
				c-1.9,0.3-3.8,0.4-5.7,0.1c-0.6-0.1-1.2-0.2-1.8-0.3c0,0-1.6,0,0.1,1.6c0.1,0.3,0.5,0.6,0.9,0.9l0.9,0.9c0,0,0,0.1,0,0.1
				c0,0,0,0.1-0.1,0.1c-1.2,0.9-2.2,2.5-2.7,3.3c-0.1,0.1-0.2,0.3-0.2,0.4c0,0,0,0,0,0c-0.8,1.6,0.5,1.3,0.5,1.3
				c1.6-0.6,2.6-0.2,2.9,0c0,0,0,0,0,0.1c-2.1,3.9-2.6,6.4-2.7,7.8c-0.1,0.4-0.1,0.7,0,1.1c0,0,0,0.1,0,0.1c0.3,0,0.6,0,0.9-0.1
				c1.1-0.2,2.5-0.4,3-0.5c-0.1,2.1-0.3,9.4,0,11.9c0,0,1.1,1.7,1,3.5c0,0,0.5,7.6,4.4,11c0,0,0,0.1,0.1,0.1
				c1.1,0.1,2.3,0.2,3.6,0.1c1.1,0.8,2.1,3.1,2.1,3.1c0.3,0.8,1.5,0.2,1.5,0.2c0.5-1.2,0.3-2.5,0-3.4c0.7,0,1.5,0.1,2.3,0.3l1,0.1
				c0.9,0.2,1.7,0.1,2.4,0c0.7,0.9,1.2,2.1,1.2,2.1c0.3,0.8,1.5,0.2,1.5,0.2c0.5-1.3,0.3-2.7,0-3.6c1.3-1.1,2-2.4,2-2.4
				c0.9-0.1,1.6-0.2,2.3-0.5c0.3,1.4,0.4,2.8,0.4,2.8c0,1.1,1.3,0.8,1.3,0.8c1.2-1.8,1.2-4.4,1.1-5.5c1.3-1.5,1.5-3.2,1.5-3.2
				c-0.9-5.9-5.1-10.4-5.1-10.4c-1-1.5-3-1.7-4-1.7c0,0,0,0-0.1,0c-6.2,0.7-6.9-2.5-6.9-2.5c1.6-5.9,7.2-7,8.9-7.2
				c0.1,0,0.2,0,0.3,0c0,0,0,0,0,0c1.6-0.4,2.8-1.2,3.1-1.5c2.2-3.6,8.9-10.1,13.1-14.1c0.4-0.3,0.7-0.7,1.1-1
				c1.9-5.1,5.5-10.4,5.5-10.4c1.7,0.6,2.8,1.8,4.4,2.5c7.1-2.8,11.7-3.2,13.1-3.3c0.2,0,0.4,0.7,0.4,0.8c0.1,0.6-0.2,1.6-0.7,2
				c-0.6,0.6-1.5,1-2.3,1.3c0,0-4.3,1.1-8.6,7.8c-0.1,0.4-0.2,0.8-0.2,1.3c-0.1,0-0.1,0-0.2-0.1c-0.7-0.2-3.4-1-5.1-0.5
				c0,0,0,0,0,0.1c1.8,1.7,2.5,6.9,2.5,6.9c-2.1,1.6-1.5,4.2-1.5,4.2c0,0.6,0.4,0.8,0.4,0.8c2.3-1.7,7.4,0.4,9.7,1.5
				c-1.5,1.9-0.4,4.5-0.4,4.5c0,0.3,0.4,0.3,0.4,0.3c0.2-0.2,0.6-0.4,1-0.6c9.6-4.3,22.5-3.8,25.6-3.6c0,0,3.6,0.7,3.6,0.7
				c0,0,0.1,0,0.1,0l0.2,0l0.1,0c0.1,0,0.3,0,0.4-0.1l3-0.6c0.8,0.7,1.4,2.1,2.6,2c1.5-0.1,3.7-4.2,3.2-6.8c0.6-0.1,1,0.3,1.5,0.2
				c0.4-0.1,0.7-0.4,1.1-0.4c1.4,0,2.2,1.6,3,2.7c1.6-1.7,1.4-6.8-0.7-7.8c0.1-2-0.5-3.4-1.5-4.5c-2.1-2.3-4.6-3.2-6.6-3.4l0.1,0
				c0,0-0.6-0.1-1.6-0.1c-0.9,0-1.5,0.1-1.5,0.1l0,0c-2.2,0.3-5.4,1.3-8.3,4.1c0,0-0.9,1.7-3.4,1.8c0,0-0.1,0-0.4,0
				c-0.2,0-0.3,0-0.5,0l-1.4-0.2c-2.8-0.3-7.3-0.7-8.4-0.8c0,0,0.4-0.7,1.2-1.4c2-2,4.7-4,7.4-5.6c0.7-0.4,1.3-0.8,2-1.2
				c2.6-1.5,4.8-2.7,5.6-3.1c0.1,0,0.2-0.1,0.3-0.2c1.5-0.8,1.8-2.5,1.8-2.5c1.4-5.1-0.1-9.7-0.1-9.7c-1.9-5.7-9.1-8.6-9.1-8.6
				c-0.2,0-0.6-0.1-1.1-0.1c-0.3,0-0.7-0.1-1.1-0.1c-1.6-0.2-3.7-0.3-4.9-0.4c-0.1-0.1-0.1-0.1-0.1-0.2c0.3-1.2,1-2.4,1-2.4
				c1-2,5.8-4.3,8.6-5.4c0.6-0.2,1.3-0.5,1.9-0.7c1.2-1.4,7.2-8.4,9.4-12.8l1.3-0.3c3.4-1,7.2-1.8,10.7-2.9c1.2-0.3,2.4-0.6,3.6-1
				c1.6-0.5,3-1.3,4.7-1.4c1.9-0.1,3.7,0.4,5.5,0.9c0,0,3.8,0.9,3.8,0.9c2.9,0.4,4.5-0.5,5.3-1.3c0.2-0.2,0.3-0.4,0.4-0.6
				c0.8,0.4,1.2,1.5,1.2,1.5c0.1,0.7,0.7,0.4,0.7,0.4c2.3-3.5-0.1-5.9-0.1-5.9l-0.1,0c0.1-0.5,0.3-0.9,0.4-1.2c0-0.2,0-0.4,0.2-0.7
				c1,0.1,1.8,1.6,1.8,1.6c0.3,0.8,0.8,0.4,0.8,0.4c0,0,0,0,0,0c0-0.1,0-0.1,0-0.2c1.8-4.4-1.1-6.8-1.1-6.8l0,0c0-0.3-0.1-1-0.4-1.9
				c0.8-0.1,1.8,0.3,1.8,0.3c0.7,0.5,0.9-0.2,0.9-0.2c-1.3-4.8-5.1-4.8-5.1-4.8l0,0.1c-1.3-1.4-3.1-2.5-5.7-3c-0.2,0-0.3,0-0.4,0
				c-1.7,0.1-2.3,1.4-2.8,1.8c-1.5,1.7-4.2,3.1-6.4,3.7c-0.6,0.2-1.2,0.2-1.9,0.2c-0.2,0-0.4,0-0.5,0c0,0-0.1,0-0.1-0.1
				c-0.3-0.4-0.9-0.9-2.1-1.4c-1.5-0.7-3.2-0.8-5.1-0.7l-6.8-0.3c13.4-10.6,15-23.8,15.2-27.9c2.3-0.8,3.3-2.3,3.7-3.9
				c2.4-0.6,4.1,1.8,4.1,1.8c0.2,0.1,0.5,0.2,0.7,0.1c0.2-0.2,0.3-0.4,0.4-0.6l0-0.1c-0.1-7.3-5.7-7.9-5.7-7.9
				c-0.1-0.5-0.3-0.9-0.4-1.2c1.5-1.4,1.8-2.9,1.6-4.2c0.8-0.4,2.3-1.1,4-1c0.1-0.1,0.2-0.3,0.2-0.6c0-0.2,0-0.3-0.1-0.5
				c-0.6-0.7-2.8-2.9-6.2-2.4c-0.6-0.8-1.3-1.3-1.9-1.6c0.3-0.7,1.4-1.2,1.4-1.2c0.7-0.2,0.3-0.6,0.3-0.6c-3.3-1.7-5.4,0-5.8,0.4
				c-0.9-0.1-2.1,0-3.7,0.8c-0.3,0.2-0.6,0.3-0.9,0.5c-1.5,0.8-4.3,2.5-4.5,5.2V91c0,1.8,0,3.5,0,5.3c0,2.1,0,4.1-0.2,6.2
				c-0.7,6.6-3,13.9-9.4,17.1c0,0-3.6,0.2-5.8-0.7c3.4-2.9,3.2-7,3.2-7c-1-5.8-4.6-7.2-7-7.4c0,0-0.1,0-0.1,0c0,0,0,0-0.1,0
				c-1.3-0.1-2.1,0.1-2.1,0.1c0,0,0,0,0,0c0,0-0.1,0-0.1,0c1.4,1.3,1.4,3,1.4,3.8c0,0,0,0,0,0.1c0,0.2,0,0.3,0,0.3
				c-0.3,1.5-1.7,2.3-3,2.8c-1.7,0.7-3.6,1-5.5,0.8c0.8-1.1,3-4.6-0.6-7.9c0,0-0.3-0.2-0.7-0.3c-0.5,0.8-3,4.4-7.4,3.5
				c0,0-0.9-0.2-1.9-0.7c0,0-0.1,0-0.1,0c-0.1,0-0.1-0.1-0.2-0.1c-0.7-0.4-1.5-1-2.1-1.8c-0.8-0.9-1.3-1.9-0.8-3.4
				c0.9-2.7,6.3-2.9,9.4-2c0.1,0,0.2,0.1,0.2,0.1c1.1,0.5,1.8,1.2,1.8,1.2c0.9,0.9,2.2,0.6,2.2,0.6c3.1-1.5,2.7-4.5,2.1-6.2
				c0-0.1-0.1-0.2-0.1-0.4c-0.2-0.5-0.4-0.9-0.4-0.9c-0.1-0.7,0.4-1.3-0.1-1.8c0,0-0.6-0.6-1.4-0.5c-0.1-0.3-0.5-1.4-1.6-0.7
				c-0.1-0.4,0.2-0.7,0.6-0.8c2.4,0.8,6,3.6,6,3.6c2,1.3,3.6,2.7,6,3.3c2.4,0.5,4.8,0.4,7-0.7c3.7-1.8,5.5-7.3,3.3-10.9
				c-0.7-1.2-2.2-2.6-3.7-2.7l0,2.3c0,0.3,0.2,0.6,0.2,0.9c0.5,5-6.1,5.3-9.4,4.1c-0.8-0.2-1.7-0.5-2.5-0.8
				c-0.9-0.4-1.6-1.3-2.5-1.4c-0.6-0.1-1.3,0.2-1.9,0.1c-0.5-0.1-0.9-0.9-1.5-1c-0.9-0.2-1.8,0.3-2.7,0.5c-0.6,0-0.6-0.6-1.1-0.7
				c-0.5,0.8-1.8,0.3-2.4-0.1c-0.8,0.2-1.3,0.7-2,1c-0.7-1.1,0.3-3.7,1-3.8c1.2-0.2,0.8,1.9,1.8,2.2c0.7-0.4,1.3-0.8,1.7-1.4
				c0.7,0.2,0.8,1,1.4,1.3c0.8-0.2,1.5-0.5,2-1c0.9,0.4,1.1,1.4,1.7,2.1c2.2-1.7,5.3-2.5,7.6-4.2c-0.2-3.1,0.4-5.2,1-7.6
				c0.6-2.1,2.1-4.1,0.6-5.5l-2.3-0.2c-0.6-1.4-2.6-4.4-9-5.2c0,0-0.3,0-0.7-0.1c-0.5-0.1-1.1-0.2-1.7-0.5c-0.3-0.1-0.7-0.3-1-0.5
				c-0.2-0.5-0.2-0.9-0.7-1.5c-0.8-1.1-2-1.6-3.2-1.9l-0.5-0.2l-0.1,0c0,0-0.8-0.2-1.7-0.5c-0.6-0.2-1.3-0.5-1.8-0.7
				c-0.2-0.2-0.3-0.4-0.3-0.6c0-1.5,1.7-3.1,1.7-3.1c-1.8-0.7-3.2,0-4,0.6c-0.8-3.1,1.9-6.9,1.9-6.9c-1.7-0.4-3.1-0.1-4.1,0.6
				c-0.5,0.3-0.9,0.7-1.3,1.1c-0.8,0.9-1.2,1.8-1.5,2.4c0,0.1-0.1,0.1-0.1,0.2c-0.3-1.7,0.3-4.4,0.3-4.4s-1.7,0-3.4,1.3c0,0,0,0,0,0
				c0,0,0,0,0,0c-0.7,0.5-1.3,1.3-1.8,2.3c0,0-0.4,0.6-1.2,1.1c-0.1,0-0.1,0-0.2,0c-0.1-0.6-0.1-1.7,0.9-2.8c0,0-0.2-0.4-0.9-0.2
				c-0.8,0.1-3.5,0.5-5.1,3c-0.5-0.1-1.1-0.2-1.8-0.1c0,0-3,0-4.4-1.5c0,0-0.5-0.9-0.7,0.3c0,0-0.3,2.6,0.7,4.1
				c-0.5,0.1-1,0.2-1.4,0.4c-0.2-0.1-2.6-3.7-5.7-2c-0.1,0.1-0.1,0.3-0.2,0.4c0.3,0,0.6,0.1,0.8,0.2c0.2,0.2,2.1,2.3,0.5,4.9
				c-1.1,0-2.5-0.3-3.6-1.1c0,0-2.2-0.9-4.5,0.1c-0.4,0.1-0.8,0.4-1.2,0.7l0,0.1c-0.3,0.3-0.7,0.6-1,0.9c0,0-0.3,0.3,0.3,0.3
				c0,0,0.3,0,0.8,0c3.3-0.1,4.6,1.9,5,3.3c-0.8,0-2.5,0.2-4.1,2.3c0,0-0.7,1.8-3.1,1.5c-0.4-0.1-0.9-0.3-1.4-0.4
				c-0.8-0.1-1.9-0.1-2.7,0.6c0,0,0,0,0,0c0.5,0.3,0.9,0.9,1.1,1.3c1.1,2.7,3.2,3,4.1,3c-0.2,0.3-0.5,0.6-0.7,0.9
				c-0.9,1.3-1.8,2.7-2.5,4.2c-1,1.9-1.9,3.9-2.6,6c-0.7,2-1.4,4.1-3.5,5c-0.2,0.1-2.6,0.8-2.7,0.5c1,3.6,7.1,3.9,9.8,1.8
				c-1.7,3.5-2,7.2-2,9.6c-0.1,2.2,0.4,4.3,0.4,6.8c0,3-1.7,5.2-3.6,6.4c0.1,1.5,1.7,1.8,2.9,2c3.7,0.4,7.1-1.4,9-3.2
				c0,0,3.2,8.3,1.3,15.2c-0.4,1.9-1.3,4-3.2,5.5c-0.4,0.4-0.6,0.8-0.5,1.1c0.2,0.6,1.7,0.5,2.5,0.4c2.4-0.2,5.3-1.3,7-2.4
				c0,0,0,0.1,0,0.1c0.1,0.7,0.3,1.4,0.5,2c0.6,1.8,1.6,3.4,2.9,4.8c0.8,0.9,1.8,1.7,2.8,2.4c0.6,0.5,2.7,2.2,3.6,1.4
				c0.5-3.3,2.8-4.5,2.8-4.5s0.2,0.4,0.4,1c0.4,1,0.7,2.3,0.9,3.2c0.2,0.7,0.4,1.7,0.4,2.3c0,0-0.3,0.8-0.9,2.1
				c-0.1,0.2-0.3,0.5-0.4,0.7c-0.2,0.5-0.5,1.1-0.7,1.6c-1.5,3.3-3.9,7.7-6.7,10.9c-2.6,1.3-11.9,6.2-17.2,13.2
				c-0.3,0.3-0.5,0.6-0.6,0.8c0,0-0.7,1.8-1.4,4.2c-1.9,0.9-5.5,0.8-7.5,0.5c-8.1-1.2-10.4-11.3-8-18c0.7-2,2-3.7,3.4-5.4
				c1.3-1.7,2.2-3.4,3.1-5.4c2.1-4.6,1.7-9.7-0.2-14.3c-1.4-3.5-4.2-6.2-7.7-7.2c-1.6-0.4-4.1-0.6-7.4,0.8c-1.4,0-5.7,0.2-7.5,1.4
				c0,0-5.9,2.7-8.2,7.4c0,0-1.1,2.9-1.5,4.4l-2,7.3c-0.1,0.2-0.1,0.3-0.2,0.5C17.7,155.2,21.1,156.9,21.1,156.9z M127,93.7
				c3.6,0.2,6.5-0.9,8.3-3l1.3-2.5c0.4,0.7,0.5,1.2,0.5,2c0,2.3-1.1,4.3-3.4,5c-1.9,0.6-3.9,0.5-5.6-0.6
				C127.6,94.4,127.1,94.1,127,93.7z M149.1,99.9c0-1.2,0-2.5-0.1-3.7c0-0.8-0.2-1.6-0.3-2.4c-0.2-1.4-0.5-2.9-0.3-4.4
				c0.2-1.2,0.9-2,1.8-2.8c1.1-1,2.7-0.9,3.4-0.7c-0.8,1.1-1.4,2.4-1.6,3.8c0,0,2.8-5.6,6.3-3.9c0,0,1,0.6,1.7,1.6l0.4,0.7
				c0.2,0.4,0.4,1,0.4,1.5c0,0-0.3,1.4-1.5,2.1c-1.4-1-2.7-0.9-3.6-0.6c-2.9,1-2.3,4.1-2.1,6.5c0.1,0.6,0.4,2,0,2.8
				c0,0-0.4,1.9,0.8,3.8c-0.5-2,0.2-3.9,0.4-4.5l0.1-2.2c-0.2-1.1-0.1-3.4,1.5-3.6c1.2-0.2,2.6,0.7,3.2,1.7c0.4,0.6,0.7,1.5,0.9,2.2
				c0.5,2,0.4,4.8-2.1,5.2c0,0-1,0.3-1.3,1.4c-0.2,3.5-1.1,12.4-5.3,14.1c0,0-2.7,0-3.2-6.9c0-0.2-0.1-0.4-0.1-0.7
				C148,107.2,149.1,103.5,149.1,99.9z M88,105.4l1.3,0.3c0.4,0.1,0.9,0.1,1.3,0.2c2.3,0.4,4.9,1,6.4,2.9c0.6,0.7,1,1.6,1.1,2.8
				c0-0.1-0.7-0.5-0.8-0.6c-0.6-0.4-1.3-0.7-2-0.8c-1.8-0.4-3.5,0-5.2-0.8C88.6,108.6,87.9,106.8,88,105.4z M123.1,131.4
				c0,0-3.9,0-8.1-4.5c0,0-1.6-1.6-5.2-2.2c0,0-7.9-1.3-10.7-7.3c0,0,0-0.1-0.1-0.2c-0.2-0.5-0.3-1.1-0.4-1.7c0,0,3.9-0.7,8.6,1.8
				c3,2.5,6.6,3.9,8.2,4.5l1.2,0.6c2.7,1.6,3.4,5.2,5.4,7.3L123.1,131.4z M122.8,125.1c0,0,0.6-0.4,3.7,1.2l8.3,4.5
				c-2,0-5.3-0.2-8.7-1.7l-1.3-0.6C124.9,128.5,123.4,126.9,122.8,125.1z M111.9,128.3c-1.4,2.2-4.2,2-4.2,2
				c-8.2-0.5-10.9-7-11.7-10.3c0.6,0.1,2.1,0.6,3.3,1.7c2.1,2.3,5.3,4.2,8.4,4.7C109.9,126.8,111.9,128.3,111.9,128.3z M102.8,138
				c0,0-0.8-1.5-1.7-3.3c-0.8-1.8-1-3.4-1.1-4.2c1.3,0.6,5.9,2.9,7.2,7.9c0.5,2.4,0.8,6.8-3.4,9.8
				C104.1,146.8,105.1,142.2,102.8,138z M111.9,167.1c0,0.6-0.2,2-1.6,1.8c-0.1-0.1-0.3-0.3-0.5-0.7c0,0-2.4-6.4-5.8-10.5
				c-0.4-0.5-0.8-1-1.2-1.5l2.4,0.8c5.2,3.4,6.6,9.5,6.6,9.5C111.8,166.7,111.9,166.9,111.9,167.1z M109.5,159
				c-0.1-0.1-0.3-0.3-0.4-0.4c0,0-0.2-0.2-0.4-0.4l3.9,1.2c1.3,1.1,2.2,2.5,2.5,4.7c0,0-0.5,1.3-1.4,0.9c0,0-0.3-0.3-0.5-0.7
				C113.3,164.2,111.3,160.8,109.5,159z M104.9,169.6c0,0-1.9,0.9-3.1-1.6c0,0-0.5-3.6-3.3-6.9c-0.2-0.3-0.4-0.9-0.4-1.3
				c0.1-1,1.4-0.5,1.9-0.2c1.6,0.9,3.1,2.2,4,3.9C104,163.5,106.1,167.9,104.9,169.6z M96.6,138.6c0,0-1.8-1.4-2.3-2
				c0,0-0.7-1.4-1.2-2.5l1.9-0.4c0,0,3.6,0.2,5.6,3.5c0.3,0.7,2.8,5.9-1.9,9.4c0,0,1.5-3.2-0.5-6.5C98.3,140.2,97.3,139,96.6,138.6z
				 M92.2,125c-2.1-4.7-0.9-7.5-0.9-7.5l0.8,1.2l2.2,4.9c1.4,2.7,1.6,5.8,1.6,5.8C93.6,128.4,92.2,125,92.2,125z M84.7,90.5
				c0.1-0.8,0.4-1.5,0.6-2.1c0.1-0.3,0.2-0.4,0.2-0.4c0.2-0.3,0.3-0.6,0.5-0.9c0.2-0.3,0.3-0.5,0.5-0.6c0.1-0.2,0.2-0.3,0.3-0.3
				c0,0-1.8,4.8,0.1,9.9c0.3,0.9,0.5,1.4,0.5,1.4c0.4,0.7,1,1.5,1.5,2.1c2.3,2.3,5.7,0.8,8-0.5c0.1,0.2,0.1,0.4,0.1,0.6
				c0.1,0.9,0,2.5-2.4,3.7c-0.3,0.1-0.6,0.2-1,0.3c-1.4,0.4-3,0.6-4.4,0c-1.5-0.6-2.6-2-3.3-3.4c-0.3-0.6-0.6-1.3-0.8-1.9
				C84.3,95.8,84.2,93.2,84.7,90.5z M80.5,128.5c0.4-0.5,1.2-0.2,1.9,0.3c0.4,0.8,1.2,2.2,2.1,3.6c0.5,1.3,0.4,2.5,0.2,3.3
				c-0.1,0.3-0.3,0.6-0.4,0.9C81.4,133.9,80.7,129.3,80.5,128.5z M80,115.3c0,0,0.6-2,0.7,0.5c0,0,0.7,7.3,1.1,9.2
				c0,0,0.2,1.2-0.8,1.5c0,0-1.2,0-1.3-1C79.7,125.4,78.9,119.5,80,115.3z M72.4,99.7c0.4-3.8,2.3-7.6,4.1-11
				c0.7-1.2,1.4-2.4,2.2-3.5c0.3-0.4,0.6-0.8,0.9-1.1c0.1-0.1,0.7-0.7,0.7-0.9c0,0,0.4,7.7,0.4,7.7c-1.4,2-4.2,6.8-4.8,13.1
				c0,0,0,3.8,0,6.3c0,0,0.1,2.1-0.1,4.5c0,0-0.1,0.9-0.3,2c0,0.1,0,0.2-0.1,0.2c0,0.2-0.1,0.3-0.1,0.5c-0.3,1.2-0.9,2.7-1.7,3.8
				c0,0-0.3,0.3-0.3-0.4c1.3-3.9,0.6-9,0.3-11c-0.2-1.5-0.6-3.1-0.9-4.6C72.5,103.5,72.2,101.6,72.4,99.7z M71.5,87
				c0,0-1.4,0.7-2.8,2.2c-1.4,1.4-3,3.4-4,6.2c0.1-2.9,0.9-4.8,0.9-4.8c1.7-6.1,12.8-12.7,12.8-12.7s0.1,0.1,0.3,0.4
				c0,0.1,0,0.1,0.1,0.2c0,0,0,0.1,0,0.1c0,0.1,0.1,0.2,0.1,0.3c0.2,0.9,0.1,2.3-1.1,4.7L77,84.9c-2,2.4-7.1,9.4-8.5,18.8
				c-0.1,0-0.1,0.1-0.2,0.1c-0.6-3-0.5-8.4-0.5-8.4c0.1-1.4,0.9-3.3,1.8-5C70.3,89.2,71,88.1,71.5,87z M67.3,79.5
				c5.1-6.2,9.8-6.6,11-6.6c-0.3,0.8-0.9,2.5-1.4,3.6c-1.3,1.1-7.8,6.4-9.5,7.2c0,0-3,1.3-5.5,1.4C64.7,83.5,67.3,79.5,67.3,79.5z
				 M82.1,64.7c-0.3,0.7-1,1.9-2.7,3.5c-1.5,0.3-8.4,1.9-13,7.1c-0.6,0.6-1,1-1,1l0.4-1.6c0.3-1,0.7-1.9,1.2-2.6
				c3.1-4.9,8.1-6.3,9.9-6.6c-0.6-1-3.9-1.4-3.9-1.4C78.4,61.5,82.1,64.7,82.1,64.7z M84.6,64.7c-0.4-0.5-0.9-0.9-1.3-1.3
				c-0.3-0.3-0.5-0.7-0.9-0.9c-0.7-0.5-1.5-0.7-1.6-1.8c0.7-0.1,1.2-0.1,1.8,0.1C83.6,62,86.4,62.7,84.6,64.7z M95.6,72.1
				c0,0-3.2,5.8-7,7.1c0-1.4,0.8-2.1,0.9-3.4c-0.3,0-0.4-0.4-0.7-0.4l-2.7,2.2l0.3-2.6c0-0.2,0-0.5,0-0.7l-1-1.2
				c-1-0.1-1.9,0.6-2.6,0.3c-0.1-0.7,1-2.7,1.7-3c0.6,0.9,1.4,1.2,1.4,1.2l-0.3-2.1c0-1,0-2-0.1-3c1.3-3.9,3-7.2,6.3-8.9h0.2
				c-0.2,0.7-0.7,1.4-1.2,2.1c-0.4,0.6-0.7,1.4-1,2c-0.8,1.8-1.4,3.7-1.8,5.7C88,67.8,88,68.2,88,68.6c0.5,2.2,2.3,4,3.1,4.8
				c1.1-1.4,1.9-3,1.9-3c0.7-2.4-0.6-5.6-0.6-5.6c-0.1-0.7,0.8-1.7,0.8-1.7s0,0,0,0c0.2-0.2,0.5-0.3,0.8-0.3
				C94.7,64.2,97,68.8,95.6,72.1z M117.9,85.1c0.6-0.3,1.5-0.1,1.4,0.7c-0.3,0.3-0.5,0.7-1,0.8C118.3,85.8,117.8,85.7,117.9,85.1z
				 M114.2,84.4c0.7-0.1,1,0.2,1.5,0.2c0.1,0.9-0.7,1-1.1,1.3C114.6,85.3,114.3,85,114.2,84.4z M111.6,84.1c0.3-0.4,1.4-0.3,1.4,0.3
				c-0.4,0.2-0.6,0.6-1,0.8C111.6,85,111.5,84.6,111.6,84.1z M100.2,97.7C100.2,97.7,100.2,97.7,100.2,97.7c-0.1,0-0.1,0-0.2,0.1
				c-0.1,0-0.2,0-0.2,0c-0.7,0-1.8-1.4-2.2-1.9c-1.8-2.5-3.4-7-2.5-11.6c0.6-2.9,2.6-5,1.7-8.1c-0.2-0.7-0.8-1.2-0.7-1.9
				c0-0.3,0.2-0.4,0.3-0.6l1.6-2.2c1.2-2.5-1.3-7.6-1.3-7.6c-1.3-4.2-1.2-7.2-1.2-7.2c0.2,0.1,0.4,0.2,0.6,0.5
				c1.2,0.8,1.8,2.5,3.1,3c-0.3-1-0.2-2.6,0.1-3.5c0.1,0,0.2,0.1,0.2,0.1c0.1,0.5,1.2,3.8,9.5,5.9c0.2,0.4,0.4,0.7,0.7,1
				c0.9,1.3,2.3,2.1,3.5,2.6c1.6,0.6,3,0.7,3,0.7c3.8,0.6,5.6,1.8,6.5,2.7c0.2,0.2,0.4,0.5,0.5,0.8c-0.6,1.2-2.9,0.6-3.7,1.6
				c-0.7,1.7,0.4,2.7,0.9,4.1c2.7,0.6,4.6,2.6,4,6.3c-1,0.5-2.2,1.3-3.7,1c-0.7-0.1-1.3-0.9-1.8-1c-1.6-0.2-3.2,1-4.8,0.5
				c-1.4-0.4-1.8-1.9-2.8-2.7c-1.4,0.3-2.4,1-3.5,1.6c-0.8,2.3-1.3,4.7-2.4,6.7c-0.6,1.2-2,1.7-2.3,3c0.5,0.9,1.3,1.2,2.2,1.2
				c2.2-0.6,3.9-0.9,5.3-1.1l1.7,0.1l-0.1-0.1c0.5,0.1,0.9,0.1,1.2,0.2l0,0l0.5,0.1l0.7-0.4c0.4,0.1,0.8,0.6,0.8,1.8
				c0.3,0.3,0.8,0.1,1.1-0.3c1.1,0.5,0.6,2.3,0.6,2.3c0.2,1.1,0.5,3.4-0.5,3.6c-0.2,0-0.4,0-0.6-0.1c0,0,0,0-0.1-0.1
				c-0.1-0.1-0.1-0.1-0.2-0.2C114.6,97.7,109.8,94.1,100.2,97.7z M116,108.5c-0.1,1.1-1.3,6.1-8.9,4.9c0,0-5.8-1.1-6.6-5.8
				c0,0.1,0.8,0.3,0.9,0.4c0.3,0.2,0.7,0.3,1,0.5c2.3,1.3,4.6,2.9,7.4,2.6c1-0.1,2-0.4,2.9-0.9C113.7,109.6,114.6,108.6,116,108.5
				L116,108.5z M130.4,113.7c-0.5,1.3-1.4,2.6-2.4,3.5c-3.6,3.7-9.6,3.2-14,1.4c-2.6-1.1-4.7-2.5-5.6-3.1c0.1,0,1-0.3,1.2-0.3
				c0.5-0.1,1-0.1,1.5,0c1,0,1.9,0.3,2.9,0.5c0.8,0.1,1.6,0.2,2.4,0.3c1.6,0.1,3.2,0,4.8-0.3c1-0.2,2-0.5,2.9-1c1.8-1,3.5-2.6,4-4.6
				c0.1-0.2,0.6-2.2,0.5-2.2c0.6,0.3,1.2,1.2,1.5,1.7C130.9,110.9,130.9,112.4,130.4,113.7z M138.5,129.6l-10-6.8c0,0,1-0.9,3.5,0
				c0,0,0.4,0.3,1.2,0.7c1.3,0.8,2.5,1.1,2.5,1.1c3.1,0.7,5-0.3,6-1.1c0,0,0,0.1,0,0.1c0.1-0.1,0.1-0.2,0.2-0.2
				c0.2-0.2,0.4-0.4,0.5-0.5C142.4,123.5,143,128.2,138.5,129.6z M116.6,153.6c0,0-4.1-2.1-6.6-4.7c0,0,0.1-2.3,0.8-3.3
				c1.8,0.2,3.7,0.3,5.1,1.3c0.6,0.4,0.8,1,1.3,1.3c4.3,0.9,15.3,1.3,15.3,1.3c1.7-0.2,3.3-0.5,4.8-0.7c2.1-0.5,4.3-0.9,6.3-1.4
				c1.3-0.3,2.5-0.8,3.8-1c2.5-0.8,4-1.4,4-1.4c-1.8-0.1-3.8,0.5-5.8,0.5c0.1-0.5,0-1.2-0.1-1.6c-1,0.2-2.2,0.9-2.2,0.9
				c-0.1-0.7-0.4-1.3-0.5-1.6c-0.5,0.2-2.8,1.3-3.8,1.7c-0.1,0-0.1,0-0.2,0c0,0,0,0,0,0l0.3-0.8c0.2-0.8-0.2-0.7-0.2-0.7
				c-1.5,0.2-3.3,1.1-4.2,1.6c0,0,0,0,0,0c0.4-0.8,0.6-1.7,0.7-2.2c0,0-0.1,0-0.1,0c-0.5,0-2.5,0.3-4.1,2.2c0,0-0.4,0.5-0.6-0.1
				c0,0-0.3-1.6-0.8-2.5c0,0-2.3,1.8-3.5,1.9l-0.4-1.8l-3.4,1.8c-1.5-0.1-3.3-0.4-5-1c-1.8-2.8-2.8-8.6-2.8-8.6
				c-0.5-1-0.9-2.2-0.9-2.2c0.1-0.2,0.5-0.2,1.1,0.1c0.3,0.1,0.6,0.2,0.9,0.2c1.8,0.3,4.6,0.9,6.6,1.1c0.9,0.1,2.6,0.3,3.3,0.1
				c0.4-0.1,0.6-0.8,1-1c2.4,0.3,5.7,3.1,5.7,3.1c1.3,1.1,3.7,1.3,3.7,1.3c20.2-0.1,19.2,1.5,19.2,1.5c1.5,1.5,2.9,2.6,2.9,2.6
				c3.7,0.2,7.5-0.5,9-0.8c1-1,2-2.3,2.5-3c-0.6-0.8-2.4-1.1-2.4-2.1c0-0.4,1.1-1.1,1.3-1.3c3.5-2.8,7.2,2.9,7.7,5.7
				c0,0.2,0.1,0.3,0.1,0.5c-0.7,0.3-1.6-0.5-2.6-0.6c-1.3-0.2-2.2,0.1-3.4,0.3c0,0,4.9,0.3,5.2,4.1c0,0-0.3,1.5-1.5,1.5
				c0,0-0.7,0-1.7-0.5c0,0-1.4-0.7-3.2-0.9c-1.4,0-2.6,0.3-3.5,0.6c2.7,0.7,7.8,0.5,7.4,4c-0.4,1.3-1.6,1.6-2.9,1.7
				c-1.6,0.1-2.8-0.7-4.2-1.2c-1.1-0.4-2.2-0.9-3.4-1c-1.1-0.2-2.4,0.2-3.5,0c-0.4-0.1-0.8-0.6-1.4-0.8c-0.1,0-0.1,0-0.2,0.1
				c-2.9,1.1-19.6,7.3-28.2,8.3C129.2,156,119.8,154.7,116.6,153.6z M137.8,210.2c0-0.1,0-0.3,0.1-0.4c0,0,0.2-0.2,0.6-0.4
				c1.1-0.6,3.5-1.4,6.1,0c0,0,3.1,1.7,2.5,4.3c0,0.1,0,0.2,0,0.2c0,0-0.2,1.2-2.2,1.8c0,0,0-0.3-0.2-0.7
				C144.3,213.5,142.8,210.4,137.8,210.2z M111.6,218.9c1.9-1.2,6.6-2.3,6.6-2.3l10-0.5c1.8,0,2.4-0.6,2.4-0.6
				c2.1-1.9,4.7-2.8,4.7-2.8c3.7-1.4,5.5,1.5,5.5,1.5c2.1,3,0.5,4.5,0.5,4.5s0.7,1.6,0.2,3.2c0,0-0.4,0.2-0.7-0.1
				c0,0-1.2-1.3-1.8-1.5c0,0-0.1,0-0.3,0c-0.9,0.6-2.6,1.2-4.2,0.3c0,0-1.1-0.8-2.4-1.4c-1.1,0.5-1.9,1-2.2,1.2l-19.1,0.9
				c0,0-0.7-1.1,0.2-2.1c0,0,0,0,0,0c0.1-0.1,0.2-0.2,0.3-0.3l0,0C111.5,219,111.5,218.9,111.6,218.9z M65.1,241.2
				c0.6-1.4,3.4-0.7,4.4-0.2c1.2,0.7,2.2,1.7,3.1,2.9c0.3,0.5,1,1.2,1.1,1.8c0.6,3.5-3.5,3.4-3.5,3.4
				C69.6,247.3,65.1,241.2,65.1,241.2z M61.1,243.2c0.5-0.3,0.9-0.4,1.5-0.5c0,0,2.5-0.3,6.1,7c0,0,0.3,3.1-4.3,3.3
				c0,0-1.7-0.6-2.5-1.5c-0.3-1.2-0.6-2.4-0.9-3.6C60.5,246.3,59.4,244.3,61.1,243.2z M57.7,245c0,0,2.9,6.2,1.3,8
				c0,0-2.1,1.6-4.3,0.5C54.7,253.6,53.1,245.3,57.7,245z M71,199.7c1.2-0.8,2.4-1.3,3.1-2.4c-0.2-3.8-4-12-4-12
				c-0.3-0.7,0.4-1.7,0.8-2.3c0.2-0.2,0.4-0.5,0.6-0.6c1.7,5.1,3.4,10.1,7.4,12.8c-0.4-2-1.6-3.7-2.3-5.6c-1.1-3.1-1.6-7.1-1.7-10.4
				c0-0.9,0.2-1.9,0.4-2.8c2.9-3.5,8.2-4.6,12.2-6.5c2.3-1.1,4.6-2,6.8-3.2c1.1-0.6,2-1.1,2.7-1.8c2,2,2.8,6.2,2,10.3
				c0,0-1.7,2-4.1,2.4c0,0-1.5,0.4-5.8-5.2c0.5,2.5,1.3,4.7,2.3,6.7c1.2,0.9,2.2,1.9,3.3,2.9c1.6-1.2,3.2-2.4,5-3.5
				c1.2-0.8,2.5-1.6,3.8-2.2c8.8-4.8,17.6-7.6,17.6-7.6l0,0c1.1-0.4,2.1-0.9,3.1-1.4c0.6-0.4,1.2-0.8,1.8-1.2
				c0.3-0.3,1.1-1.5,1.5-1.5c0,0-0.1,0-0.1,0c0.2-0.2,0.4-0.4,0.7-0.4c0,0,0.4,3.5-5.9,6.9c0,0-1.3,0.4-2.9,1.3
				c-2,0.8-3.9,1.5-5.8,2.4c-4,1.8-8,3.8-11.7,6.2c-2.6,1.7-5.2,3.6-7,6.2c-0.6,0.8-1,1.7-1.5,2.6c-1.7,3.3-3.5,6.6-5.1,10
				c-1.3,2.7-2.6,5.5-3.8,8.3c0,0-12,10.4-13.5,13c-0.7,0-1.9,0.1-3.4,0.6c-0.2,0.1-0.4,0.2-0.7,0.3c-1.8,0.8-4,2.2-6.2,4.7
				c0,0-5.3,6.8-1.2,13.9c-1.6,0.2-2.9,0.6-3.9-0.4c-1.1-1.8-1.5-4.9-1.1-8.1c0.2-1.5,1.1-3.7,2-5.5c0.6-1.1,1.4-2.1,2.2-2.9
				c0.1-0.2,0.3-0.3,0.4-0.5c4.4-4.6,9.9-6.2,9.9-6.2c1.9-1.5,2.9-2.5,3.4-3.2c0,0,0.1,0,0.1-0.1c0,0,0,0,0-0.1
				c0.4-0.6,0.5-0.9,0.4-1.1c0-0.2,0.2-4.2-1-6.6c-0.6,0.1-1.9,0.3-3,0.6c-0.1,0.1-0.1,0.1-0.2,0.2l-2.9,2.6c0,0-0.8,1.7-0.9,2.8
				l-0.8,1.2l-7.5,5.9c0,0-0.7,1-1.4,1.5c-0.1-0.3-0.4-0.4-0.4-0.8c0.2-1.1,0.7-1.8,0.7-3.1c2.5-2.5,5.7-4.4,7.7-7.4
				C66.5,206.9,69.9,204.5,71,199.7z M31.8,138.3l-5,1.7c0.5-1.2,1.6-3,3.2-3.9c0,0,1.7-1.1,3.7-1.4l-0.5,2.9l2.3-1.1l0,0.1
				c-0.4,2.6-1.9,5.5-1.9,5.5c1.8-0.9,2.9-2.5,3.6-3.8c0.3-0.3,0.5-0.6,0.7-0.8l0,0l0,0.1c0,0.1,0,0.4,0,0.7c0,0-0.4,7-7,7.4
				l0.7-2.7c0,0-0.3,0.1-0.8,0.2v0l-2.1,0.5c0,0,0,0,0,0l0,0l0,0c0.5-0.5,1.3-1.4,2-2.5l0.3-0.3c0,0,0-0.1,0-0.2
				C31.3,139.9,31.6,139.1,31.8,138.3z M111.5,74.4c-0.1,0.3,0.2,0.2,0.2,0.4c0.6,0,0.8-0.3,1.3-0.3c-0.4-0.2-0.8-0.4-1.4-0.3
				C111.6,74.3,111.5,74.4,111.5,74.4z M117,78.5c-0.6,0.1-1,0.3-1.3,0.7c0,0.3,0.2,0.5,0.5,0.6C116.6,79.4,116.8,79,117,78.5z
				 M101,89.6c0,0-2,6,2,4.8C103,94.4,100.4,93.6,101,89.6z M113.4,76.8c-0.5,0-0.9,0.1-1.1,0.3c0,0.2,0.1,0.2,0.1,0.4
				C113,77.7,113.2,77.2,113.4,76.8z M117.4,72.2c-0.3-0.9-1.5-0.4-1.5,0.3C116.4,72.7,117.2,72.8,117.4,72.2z M104.3,75.7
				c1.8,0.3,2.4-0.2,3.5-0.9c-1.1-0.2-2.2-0.3-3-0.9C104.3,74.3,104.2,75,104.3,75.7z M71.6,86.9c0,0,0,0.1-0.1,0.1c0,0,0,0,0.1,0
				V86.9z M103.1,74.5c0-0.1,0-0.1,0-0.2c-0.4,0.1-1.6,0.3-3.5-0.7c0,0-0.1,0-0.1,0C99.3,75.8,102.4,76.1,103.1,74.5z M102.8,73.3
				c0.9-0.4,1.6-1.1,2.2-1.8c0.5,0.2,0.2,0.9,0.1,1.3c1.1,0.9,3.3,0.6,3.7-0.9c-0.6-0.5-1.2-0.6-1.2-1.5c0.7-0.3,1.1,0.6,1.7,0.7
				c0.2,0,1.9-1.1,1.9-1.1l-0.4,0.9c1,0.6,2.7,0.3,3.3,1.3c0.7-0.1,1.3-0.4,1.7-0.8c-0.1-0.9-1.5-0.3-2.1-0.7
				c-0.2-0.3,0.3-0.5,0-0.9c-0.7-0.2-1.1-0.7-1.7-1c-0.2-0.8-0.2-1.8-1.1-1.9c0.1,1.6-0.4,2.5-2,2c-1.3-0.5-2.8-3.9-5.2-3.7
				c-0.3,0-2.2,0.6-1.8,1.6c0,0.4,0.4,0.3,0.7,0.3c0.2,0.5,0.3,1,0.7,1.2c0.5,0.1,0.7-0.2,1.1-0.2c0.1,1.3-1.5,1.7-1.5,3.3
				c-0.7,0.4-1.9,0.3-2.7,0.5C100.9,72.8,102.1,73.1,102.8,73.3z"/>
		</g>
	</g>
	<g>
		<rect x="54.2" y="178.8" class="st0" width="94.6" height="43.6"/>
	</g>
	<g>
		<path class="st0" d="M170.5,75l11.1,22.5c0.9,1.8,3.3,3.6,5.4,3.9l24.8,3.6l-17.9,17.5c-1.5,1.4-2.4,4.3-2,6.3l4.2,24.7
			l-22.2-11.7c-1.8-1-4.8-1-6.6,0L145,153.4l4.2-24.7c0.3-2-0.6-4.9-2-6.3l-17.9-17.5l24.8-3.6c2-0.3,4.4-2,5.4-3.9L170.5,75z"/>
		<g>
			<defs>
				<rect id="SVGID_3_" y="129.4" width="270.2" height="60"/>
			</defs>
			<clipPath id="SVGID_4_">
				<use xlink:href="#SVGID_3_"  style="overflow:visible;"/>
			</clipPath>
			<g class="st7">
				<path class="st8" d="M23.5,164.4v14h-8.7v-38.9h14.7c7.9,0,13.3,5.2,13.3,12.5c0,7.4-5.4,12.5-13.3,12.5H23.5z M28.6,157
					c3.3,0,5.5-1.9,5.5-4.9c0-3.1-2.3-5-5.5-5h-5v9.9H28.6z"/>
				<path class="st8" d="M60.2,164h-3.1v14.5h-8.7v-38.9h15.4c7.7,0,12.6,5.3,12.6,12.2c0,5.3-2.9,9.3-7.7,11l7.9,15.8h-9.5
					L60.2,164z M62.2,156.5c3.6,0,5.5-2,5.5-4.7c0-2.9-1.9-4.7-5.5-4.7h-5.1v9.4H62.2z"/>
				<path class="st8" d="M83.3,178.4v-38.9h24.6v8.2h-16v7.4h14.5v7.6H91.9v7.5h16v8.2H83.3z"/>
				<path class="st8" d="M150.7,178.4v-25.8l-10.2,25.8h-7L123.4,153v25.5h-8.2v-38.9h11.3l10.7,26.3l10.2-26.3h11.9v38.9H150.7z"/>
				<path class="st8" d="M168,178.4v-38.9h8.8v38.9H168z"/>
				<path class="st8" d="M185.6,178.4v-38.9h24.6v8.2h-16v7.4h14.5v7.6h-14.5v7.5h16v8.2H185.6z"/>
				<path class="st8" d="M229.2,164h-3.1v14.5h-8.7v-38.9h15.4c7.7,0,12.6,5.3,12.6,12.2c0,5.3-2.9,9.3-7.7,11l7.9,15.8h-9.5
					L229.2,164z M231.2,156.5c3.6,0,5.5-2,5.5-4.7c0-2.9-1.9-4.7-5.5-4.7h-5.1v9.4H231.2z"/>
			</g>
		</g>
		<g class="st9">
			<g>
				<path class="st10" d="M65.4,203.3v-14.9h1.3v13.7h7.5v1.2H65.4z"/>
				<path class="st10" d="M76.8,203.3v-14.9h8.8v1.2h-7.4v5.6h6.8v1.2h-6.8v5.6h7.4v1.2H76.8z"/>
				<path class="st10" d="M97.6,198.8h-7.1l-1.8,4.6h-1.4l6-14.9h1.6l6,14.9h-1.4L97.6,198.8z M91,197.5h6.2l-3.1-7.7L91,197.5z"/>
				<path class="st10" d="M114.4,203.3l-0.1-2.9c-0.6,1.3-2.2,3.1-5.4,3.1c-3.5,0-7-2.7-7-7.7c0-5,3.5-7.7,7.2-7.7
					c3.2,0,5.6,1.8,6.5,4.5l-1.2,0.5c-0.7-2.3-2.7-3.8-5.3-3.8c-3,0-5.9,2.2-5.9,6.5s2.9,6.5,5.7,6.5c3.9,0,5.2-3,5.3-4.9h-5.5v-1.2
					h6.8v7H114.4z"/>
				<path class="st10" d="M118.9,198.4v-9.9h1.3v9.9c0,2.6,1.3,4.1,3.8,4.1s3.8-1.4,3.8-4.1v-9.9h1.3v9.9c0,3.4-2.1,5.2-5.1,5.2
					C120.9,203.6,118.9,201.8,118.9,198.4z"/>
				<path class="st10" d="M133.1,203.3v-14.9h8.8v1.2h-7.4v5.6h6.8v1.2h-6.8v5.6h7.4v1.2H133.1z"/>
			</g>
			<g class="st11">
				<path class="st2" d="M65.9,203.8V189h1.3v13.7h7.5v1.2H65.9z"/>
				<path class="st2" d="M77.3,203.8V189h8.8v1.2h-7.4v5.6h6.8v1.2h-6.8v5.6h7.4v1.2H77.3z"/>
				<path class="st2" d="M98.1,199.2H91l-1.8,4.6h-1.4l6-14.9h1.6l6,14.9H100L98.1,199.2z M91.5,198h6.2l-3.1-7.7L91.5,198z"/>
				<path class="st2" d="M115,203.8l-0.1-2.9c-0.6,1.3-2.2,3.1-5.4,3.1c-3.5,0-7-2.7-7-7.7c0-5,3.5-7.7,7.2-7.7
					c3.2,0,5.6,1.8,6.5,4.5l-1.2,0.5c-0.7-2.3-2.7-3.8-5.3-3.8c-3,0-5.9,2.2-5.9,6.5s2.9,6.5,5.7,6.5c3.9,0,5.2-3,5.3-4.9h-5.5v-1.2
					h6.8v7H115z"/>
				<path class="st2" d="M119.4,198.9V189h1.3v9.9c0,2.6,1.3,4.1,3.8,4.1s3.8-1.4,3.8-4.1V189h1.3v9.9c0,3.4-2.1,5.2-5.1,5.2
					C121.4,204.1,119.4,202.3,119.4,198.9z"/>
				<path class="st2" d="M133.6,203.8V189h8.8v1.2H135v5.6h6.8v1.2H135v5.6h7.4v1.2H133.6z"/>
			</g>
		</g>
		<path class="st2" d="M171.6,96.5l5.4,10.9c0.4,0.9,1.6,1.7,2.6,1.9l12,1.7l-8.7,8.5c-0.7,0.7-1.2,2.1-1,3l2.1,12l-10.7-5.6
			c-0.9-0.5-2.3-0.5-3.2,0l-10.7,5.6l2.1-12c0.2-1-0.3-2.4-1-3l-8.7-8.5l12-1.7c1-0.1,2.2-1,2.6-1.9L171.6,96.5z"/>
		<path class="st12" d="M171.5,106.2l2.9,5.9c0.2,0.5,0.9,0.9,1.4,1l6.5,0.9l-4.7,4.6c-0.4,0.4-0.6,1.1-0.5,1.7l1.1,6.5l-5.8-3.1
			c-0.5-0.3-1.3-0.3-1.7,0l-5.8,3.1l1.1-6.5c0.1-0.5-0.2-1.3-0.5-1.7l-4.7-4.6l6.5-0.9c0.5-0.1,1.2-0.5,1.4-1L171.5,106.2z"/>
		<g>
			<path class="st2" d="M23.1,163.4v14h-8.7v-38.9h14.7c7.9,0,13.3,5.2,13.3,12.5c0,7.4-5.4,12.5-13.3,12.5H23.1z M28.2,156
				c3.3,0,5.5-1.9,5.5-4.9c0-3.1-2.3-5-5.5-5h-5v9.9H28.2z"/>
			<path class="st2" d="M59.8,162.9h-3.1v14.5h-8.7v-38.9h15.4c7.7,0,12.6,5.3,12.6,12.2c0,5.3-2.9,9.3-7.7,11l7.9,15.8h-9.5
				L59.8,162.9z M61.9,155.5c3.6,0,5.5-2,5.5-4.7c0-2.9-1.9-4.7-5.5-4.7h-5.1v9.4H61.9z"/>
			<path class="st2" d="M82.9,177.4v-38.9h24.6v8.2h-16v7.4H106v7.6H91.6v7.5h16v8.2H82.9z"/>
			<path class="st2" d="M150.3,177.4v-25.8l-10.2,25.8h-7L123,152v25.5h-8.2v-38.9h11.3l10.7,26.3l10.2-26.3h11.9v38.9H150.3z"/>
			<path class="st2" d="M167.6,177.4v-38.9h8.8v38.9H167.6z"/>
			<path class="st2" d="M185.2,177.4v-38.9h24.6v8.2h-16v7.4h14.5v7.6h-14.5v7.5h16v8.2H185.2z"/>
			<path class="st2" d="M228.8,162.9h-3.1v14.5h-8.7v-38.9h15.4c7.7,0,12.6,5.3,12.6,12.2c0,5.3-2.9,9.3-7.7,11l7.9,15.8h-9.5
				L228.8,162.9z M230.9,155.5c3.6,0,5.5-2,5.5-4.7c0-2.9-1.9-4.7-5.5-4.7h-5.1v9.4H230.9z"/>
		</g>
	</g>
</g>
<rect x="69.1" y="212.3" class="st0" width="69.3" height="25.7"/>
<rect x="58.2" y="220.6" class="st0" width="83.7" height="5.8"/>
<g>
</g>
<g>
</g>
<g>
</g>
<g>
</g>
<g>
</g>
<g>
</g>
</svg>
