<?xml version="1.0" encoding="utf-8"?>
<!-- Generator: Adobe Illustrator 19.0.1, SVG Export Plug-In . SVG Version: 6.00 Build 0)  -->
<svg version="1.1" id="Layer_1" xmlns="http://www.w3.org/2000/svg" xmlns:xlink="http://www.w3.org/1999/xlink" x="0px" y="0px"
	 viewBox="0 0 415.8 442" style="enable-background:new 0 0 415.8 442;" xml:space="preserve">
<style type="text/css">
	.st0{display:none;}
	.st1{display:inline;fill:#33373A;}
	.st2{fill:#3C9950;}
	.st3{fill:#33629B;}
	.st4{display:none;fill:#1C497C;}
	.st5{fill:#CDCCCC;}
	.st6{fill:#FFFFFF;}
	.st7{display:none;fill:#187D3E;}
</style>
<g class="st0">
	<path class="st1" d="M115.6,499l-1.4-4.2h-11.5l-1.4,4.2h-8.5l11-29.1h9.5l11,29.1H115.6z M108.4,477.3l-3.7,11h7.4L108.4,477.3z"
		/>
	<path class="st1" d="M130,499v-22.6h-8.2v-6.5h23.8v6.5h-8.1V499H130z"/>
	<path class="st1" d="M168.8,499v-11.7h-12.1V499h-7.5v-29.1h7.5v10.9h12.1v-10.9h7.5V499H168.8z"/>
	<path class="st1" d="M182.2,499v-29.1h7.5v22.6h11.7v6.5H182.2z"/>
	<path class="st1" d="M205.2,499v-29.1h21.3v6.5h-13.8v4.5h11.4v6.6h-11.4v4.9h13.8v6.5H205.2z"/>
	<path class="st1" d="M237.4,499v-22.6h-8.2v-6.5H253v6.5h-8.1V499H237.4z"/>
	<path class="st1" d="M256.6,499v-29.1h7.5V499H256.6z"/>
	<path class="st1" d="M267.2,484.5c0-9,6.8-15.1,15.8-15.1c7,0,10.8,4,12.7,7.8l-6.5,3.1c-1-2.3-3.4-4.2-6.2-4.2
		c-4.8,0-8.1,3.6-8.1,8.4c0,4.8,3.4,8.4,8.1,8.4c2.8,0,5.3-1.9,6.2-4.2l6.5,3.1c-1.9,3.7-5.7,7.8-12.7,7.8
		C274,499.5,267.2,493.4,267.2,484.5z"/>
	<path class="st1" d="M296.7,494.9l4-5.9c2.1,2.1,5.3,3.8,9.3,3.8c2.5,0,4.1-0.9,4.1-2.3c0-3.8-16.5-0.7-16.5-11.9
		c0-4.9,4.1-9.3,11.6-9.3c4.7,0,8.7,1.4,11.8,4.1l-4.1,5.6c-2.5-2.1-5.6-3.1-8.5-3.1c-2.2,0-3.1,0.7-3.1,2c0,3.6,16.5,0.9,16.5,11.7
		c0,5.8-4.3,9.7-12.1,9.7C303.8,499.5,299.7,497.7,296.7,494.9z"/>
</g>
<g class="st0">
	<path class="st1" d="M172.3,72.3c-3.7,0-6.7,3-6.7,6.7v53.2c0,3.7,3,6.7,6.7,6.7c3.7,0,6.8-3,6.8-6.7V79.1
		C179,75.4,176,72.3,172.3,72.3z M154.2,81.4c-3.7,0-6.7,3-6.7,6.7v34.9c0,3.7,3,6.7,6.7,6.7c3.7,0,6.8-3,6.8-6.7V88.2
		C161,84.5,157.9,81.4,154.2,81.4z M244.8,72.3c-3.7,0-6.7,3-6.7,6.7v53.2c0,3.7,3,6.7,6.7,6.7c3.7,0,6.8-3,6.8-6.7V79.1
		C251.5,75.4,248.5,72.3,244.8,72.3z M262.9,81.4c-3.7,0-6.7,3-6.7,6.7v34.9c0,3.7,3,6.7,6.7,6.7c3.7,0,6.8-3,6.8-6.7V88.2
		C269.6,84.5,266.6,81.4,262.9,81.4z M183.7,112.4h49.7V98.9h-49.7V112.4z"/>
</g>
<rect x="78" y="43.9" class="st2" width="259.8" height="125.2"/>
<path class="st3" d="M207.9,394c-16-7.8-51.6-26.7-81.5-53.8c-18.5,1.3-37,3-55.4,5.2c47.3,58.1,123.8,91,128.4,92.9l8.5,3.6
	l8.5-3.6c4.6-2,81.1-34.8,128.4-92.9c-18.4-2.2-36.9-3.9-55.4-5.2C259.5,367.3,223.9,386.2,207.9,394z M381.7,68.5l-6.8-6.5
	c-2.7-2.5-66.5-62-167-62C107.3,0,43.6,59.4,40.9,62l-6.8,6.5v106.9c-12.4,2.2-23.8,4.6-34.1,7.2l24.1,146.8
	c52.7-12,115.8-19,183.8-19c68,0,131.1,7,183.8,19l24.1-146.8c-10.3-2.6-21.7-5-34.1-7.2V68.5z M337.8,169.1
	c-38.4-4.4-82.7-6.9-129.9-6.9c-47.2,0-91.5,2.5-129.9,6.9v-81C94.8,75,141.8,43.9,207.9,43.9c65.5,0,112.9,31.2,129.9,44.3V169.1z"
	/>
<path class="st4" d="M2.9,135.1c-32.9,6.2-65.6,13.7-98.1,22.5c15.2,22.1,30,44.4,44.2,66.9c-2.1,26.6-3.6,53.1-4.7,79.6
	c18.3-4.9,36.8-9.4,55.2-13.5c-7.9-36.6-15.9-73.1-23.9-109.6C-15.6,165.6-6.6,150.3,2.9,135.1z"/>
<path class="st4" d="M512,158.6c-32.3-9.3-64.9-17.5-97.6-24.3c9.2,15.4,18,30.8,26.4,46.4c-8.7,36.4-17.3,72.8-26,109.2
	c18.4,4.4,36.7,9.2,55,14.5c-0.6-26.4-1.6-53-3.2-79.6C481.3,202.4,496.4,180.4,512,158.6z"/>
<polygon class="st5" points="207.9,317.6 214.8,339 237.3,339 219.1,352.3 226.1,373.7 207.9,360.4 189.7,373.7 196.6,352.3 
	178.4,339 200.9,339 "/>
<polygon class="st6" points="169.2,72.6 179.2,90.3 199.1,86.3 185.3,101.2 195.3,118.9 176.8,110.5 163,125.4 165.4,105.2 
	146.9,96.7 166.9,92.7 "/>
<polygon class="st6" points="107.9,89.6 117.9,107.4 137.8,103.4 124,118.3 134,136 115.5,127.5 101.8,142.4 104.1,122.3 
	85.6,113.8 105.6,109.8 "/>
<g class="st0">
</g>
<g>
	<path class="st2" d="M169.9,349.7c0,2-0.5,3.5-1.4,4.6s-2.2,1.6-3.7,1.6c-1.6,0-2.8-0.5-3.8-1.6s-1.4-2.6-1.4-4.6v-3.3
		c0-2,0.5-3.5,1.4-4.6c0.9-1,2.2-1.6,3.8-1.6c1.6,0,2.8,0.5,3.8,1.6c0.9,1,1.4,2.6,1.4,4.6V349.7z M166.8,346c0-1.2-0.2-2.1-0.5-2.6
		s-0.9-0.8-1.6-0.8c-0.7,0-1.2,0.3-1.6,0.8c-0.4,0.6-0.5,1.4-0.5,2.7v4c0,1.2,0.2,2.1,0.5,2.7c0.4,0.6,0.9,0.8,1.6,0.8
		c0.7,0,1.2-0.3,1.6-0.8c0.4-0.6,0.5-1.4,0.5-2.7V346z"/>
	<path class="st2" d="M255.4,342.8c-1.6,1.9-2.7,3.7-3.3,5.3c-0.6,1.6-1,3.6-1.3,6l-0.1,1.5h-3l0.1-1.5c0.2-2.2,0.7-4.3,1.5-6.2
		c0.8-1.9,1.8-3.6,3.2-5.1h-5.4l-0.1,1.5h-2.3v-3.9h10.7V342.8z"/>
</g>
<polygon class="st7" points="141.6,83.6 151.4,101.1 171.1,97.2 157.5,111.9 167.3,129.4 149.1,121.1 135.5,135.8 137.8,115.9 
	119.6,107.5 139.2,103.6 "/>
<polygon class="st7" points="270.7,83.6 260.9,101.1 241.2,97.2 254.8,111.9 245,129.4 263.2,121.1 276.8,135.8 274.5,115.9 
	292.7,107.5 273,103.6 "/>
<polygon class="st6" points="245.8,72.6 235.9,90.3 216,86.3 229.7,101.2 219.8,118.9 238.3,110.5 252,125.4 249.7,105.2 
	268.1,96.7 248.2,92.7 "/>
<polygon class="st6" points="307.1,89.6 297.2,107.3 277.3,103.3 291,118.3 281.1,136 299.6,127.5 313.3,142.4 311,122.3 
	329.4,113.8 309.5,109.8 "/>
</svg>
